{
.appVersion = "3343";
.storedFileType = com.schriftgestaltung.glyphs;
.formatVersion = 3;
DisplayStrings = (
"DAVID SNAHA",
"01234567890",
"5"
);
axes = (
{
name = Weight;
tag = wght;
}
);
date = "2024-10-14 15:19:46 +0000";
familyName = "Snaha v04";
featurePrefixes = (
{
automatic = 1;
code = "languagesystem DFLT dflt;

languagesystem latn dflt;
languagesystem latn NLD;
";
name = Languagesystems;
}
);
features = (
{
automatic = 1;
code = "feature locl;
feature ss01;
";
tag = aalt;
},
{
code = "script latn;
language dflt;
lookup SUB_0 {
	sub A H A hyphen M A R K by aha-mark;
	sub A H A hyphen S T A R by aha-star;
} SUB_0;
";
tag = liga;
},
{
automatic = 1;
code = "lookup ccmp_DFLT_1 {
	@CombiningTopAccents = [acutecomb brevecomb caroncomb circumflexcomb commaturnedabovecomb dieresiscomb dotaccentcomb gravecomb hungarumlautcomb macroncomb ringcomb tildecomb];
	lookupflag UseMarkFilteringSet @CombiningTopAccents;
	sub i' @CombiningTopAccents by idotless;
	sub j' @CombiningTopAccents by jdotless;
} ccmp_DFLT_1;
";
tag = ccmp;
},
{
automatic = 1;
code = "script latn;
language NLD;
lookup locl_latn_0 {
	sub iacute j' by jacute;
	sub Iacute J' by Jacute;
} locl_latn_0;
";
tag = locl;
},
{
automatic = 1;
code = "sub Q by Q.ss01;
sub f by f.ss01;
sub i by i.ss01;
sub idotless by idotless.ss01;
sub j by j.ss01;
sub jdotless by jdotless.ss01;
sub l by l.ss01;
sub t by t.ss01;
";
labels = (
{
language = dflt;
value = "";
}
);
tag = ss01;
}
);
fontMaster = (
{
axesValues = (
300
);
guides = (
{
pos = (-128,498);
},
{
pos = (-984,672);
},
{
pos = (89,380);
}
);
iconName = Light;
id = m002;
metricValues = (
{
over = 16;
pos = 800;
},
{
over = 16;
pos = 630;
},
{
over = 16;
pos = 400;
},
{
over = -16;
},
{
over = -16;
pos = -200;
}
);
name = Light;
},
{
axesValues = (
400
);
guides = (
{
pos = (-167,498);
},
{
pos = (-984,672);
},
{
pos = (-103,340);
}
);
id = m01;
metricValues = (
{
pos = 800;
},
{
pos = 630;
},
{
pos = 400;
},
{
},
{
pos = -200;
}
);
name = Regular;
},
{

glyphs = (
{
glyphname = A;
lastChange = "2025-02-18 14:40:45 +0000";
layers = (
{
anchors = (
{
name = bottom;
pos = (255,0);
},
{
name = ogonek;
pos = (459,10);
},
{
name = top;
pos = (255,630);
}
);
layerId = m01;
shapes = (
{
closed = 1;
nodes = (
(440,630,l),
(112,630,l),
(112,580,l),
(280,580,l),
(280,0,l),
(440,0,l)
);
},
{
closed = 1;
nodes = (
(291,340,l),
(119,340,l),
(119,290,l),
(291,290,l)
);
},
{
closed = 1;
nodes = (
(130,630,l),
(70,630,l),
(70,0,l),
(130,0,l)
);
}
);
width = 510;
},
{
anchors = (
{
name = bottom;
pos = (205,0);
},
{
name = ogonek;
pos = (369,10);
},
{
name = top;
pos = (205,670);
}
);
layerId = m002;
shapes = (
{
closed = 1;
nodes = (
(340,700,l),
(112,700,l),
(112,640,l),
(280,640,l),
(280,0,l),
(340,0,l)
);
},
{
closed = 1;
nodes = (
(291,370,l),
(119,370,l),
(119,310,l),
(291,310,l)
);
},
{
closed = 1;
nodes = (
(130,700,l),
(70,700,l),
(70,0,l),
(130,0,l)
);
}
);
width = 410;
},
{
anchors = (
{
name = bottom;
pos = (305,0);
},
{
name = ogonek;
pos = (549,10);
},
{
name = top;
pos = (305,670);
}
);
layerId = m003;
shapes = (
{
closed = 1;
nodes = (
(540,671,l),
(212,671,l),
(212,621,l),
(380,621,l),
(380,0,l),
(540,0,l)
);
},
{
closed = 1;
nodes = (
(391,360,l),
(219,360,l),
(219,310,l),
(391,310,l)
);
},
{
closed = 1;
nodes = (
(230,671,l),
(70,671,l),
(70,0,l),
(230,0,l)
);
}
);
width = 610;
}
);
metricLeft = H;
metricRight = H;
unicode = 65;
},
{
glyphname = B;
lastChange = "2025-02-18 09:56:29 +0000";
layers = (
{
layerId = m01;
shapes = (
{
closed = 1;
nodes = (
(440,0,l),
(440,630,l),
(112,630,l),
(112,580,l),
(280,580,l),
(280,0,l)
);
},
{
closed = 1;
nodes = (
(291,0,l),
(291,50,l),
(119,50,l),
(119,0,l)
);
},
{
closed = 1;
nodes = (
(130,0,l),
(130,630,l),
(70,630,l),
(70,0,l)
);
},
{
closed = 1;
nodes = (
(291,290,l),
(291,340,l),
(119,340,l),
(119,290,l)
);
},
{
closed = 1;
nodes = (
(340,340,l),
(440,340,l),
(440,290,l),
(340,290,l)
);
}
);
width = 510;
},
{
layerId = m002;
shapes = (
{
closed = 1;
nodes = (
(340,0,l),
(340,700,l),
(112,700,l),
(112,640,l),
(280,640,l),
(280,0,l)
);
},
{
closed = 1;
nodes = (
(291,0,l),
(291,60,l),
(119,60,l),
(119,0,l)
);
},
{
closed = 1;
nodes = (
(130,0,l),
(130,700,l),
(70,700,l),
(70,0,l)
);
},
{
closed = 1;
nodes = (
(280,310,l),
(280,370,l),
(119,370,l),
(119,310,l)
);
},
{
closed = 1;
nodes = (
(280,370,l),
(340,370,l),
(340,310,l),
(280,310,l)
);
}
);
width = 410;
},
{
layerId = m003;
shapes = (
{
closed = 1;
nodes = (
(540,0,l),
(540,700,l),
(212,700,l),
(212,640,l),
(380,640,l),
(380,0,l)
);
},
{
closed = 1;
nodes = (
(391,0,l),
(391,60,l),
(219,60,l),
(219,0,l)
);
},
{
closed = 1;
nodes = (
(230,0,l),
(230,700,l),
(70,700,l),
(70,0,l)
);
},
{
closed = 1;
nodes = (
(391,310,l),
(391,370,l),
(219,370,l),
(219,310,l)
);
},
{
closed = 1;
nodes = (
(440,370,l),
(540,370,l),
(540,310,l),
(440,310,l)
);
}
);
width = 610;
}
);
metricLeft = H;
metricRight = H;
unicode = 66;
},
{
glyphname = C;
lastChange = "2025-02-25 10:02:05 +0000";
layers = (
{
anchors = (
{
name = bottom;
pos = (208,0);
},
{
name = top;
pos = (229,630);
}
);
layerId = m01;
shapes = (
{
closed = 1;
nodes = (
(70,630,l),
(70,0,l),
(380,0,l),
(380,50,l),
(230,50,l),
(230,580,l),
(380,580,l),
(380,630,l)
);
}
);
width = 415;
},
{
anchors = (
{
name = bottom;
pos = (174,0);
},
{
name = top;
pos = (176,700);
}
);
layerId = m002;
shapes = (
{
closed = 1;
nodes = (
(70,700,l),
(70,0,l),
(280,0,l),
(280,60,l),
(130,60,l),
(130,640,l),
(280,640,l),
(280,700,l)
);
}
);
width = 315;
},
{
anchors = (
{
name = bottom;
pos = (213,0);
},
{
name = top;
pos = (230,700);
}
);
layerId = m003;
shapes = (
{
closed = 1;
nodes = (
(70,700,l),
(70,0,l),
(380,0,l),
(380,60,l),
(230,60,l),
(230,640,l),
(380,640,l),
(380,700,l)
);
}
);
width = 415;
}
);
metricLeft = H;
metricRight = "=H/2";
unicode = 67;
},
{
glyphname = D;
lastChange = "2025-02-18 14:12:31 +0000";
layers = (
{
anchors = (
{
name = bottom;
pos = (255,0);
},
{
name = center;
pos = (128,315);
},
{
name = top;
pos = (255,630);
}
);
layerId = m01;
shapes = (
{
closed = 1;
nodes = (
(440,630,l),
(70,630,l),
(70,0,l),
(440,0,l)
);
},
{
closed = 1;
nodes = (
(230,50,l),
(230,580,l),
(380,580,l),
(380,50,l)
);
}
);
width = 510;
},
{
anchors = (
{
name = bottom;
pos = (206,0);
},
{
name = center;
pos = (207,350);
},
{
name = top;
pos = (206,700);
}
);
layerId = m002;
shapes = (
{
closed = 1;
nodes = (
(340,700,l),
(70,700,l),
(70,0,l),
(340,0,l)
);
},
{
closed = 1;
nodes = (
(130,60,l),
(130,640,l),
(280,640,l),
(280,60,l)
);
}
);
width = 410;
},
{
anchors = (
{
name = bottom;
pos = (270,0);
},
{
name = center;
pos = (150,350);
},
{
name = top;
pos = (270,700);
}
);
layerId = m003;
shapes = (
{
closed = 1;
nodes = (
(440,700,l),
(70,700,l),
(70,0,l),
(440,0,l)
);
},
{
closed = 1;
nodes = (
(230,60,l),
(230,640,l),
(380,640,l),
(380,60,l)
);
}
);
width = 510;
}
);
metricLeft = H;
metricRight = H;
unicode = 68;
},
{
glyphname = E;
lastChange = "2025-02-18 14:12:38 +0000";
layers = (
{
anchors = (
{
name = bottom;
pos = (208,0);
},
{
name = ogonek;
pos = (374,10);
},
{
name = top;
pos = (208,630);
},
{
name = topleft;
pos = (20,630);
}
);
layerId = m01;
shapes = (
{
closed = 1;
nodes = (
(230,0,l),
(230,630,l),
(70,630,l),
(70,0,l)
);
},
{
closed = 1;
nodes = (
(380,0,l),
(380,50,l),
(219,50,l),
(219,0,l)
);
},
{
closed = 1;
nodes = (
(370,290,l),
(370,340,l),
(209,340,l),
(209,290,l)
);
},
{
closed = 1;
nodes = (
(380,580,l),
(380,630,l),
(219,630,l),
(219,580,l)
);
}
);
width = 415;
},
{
anchors = (
{
name = bottom;
pos = (143,0);
},
{
name = ogonek;
pos = (331,10);
},
{
name = top;
pos = (181,700);
},
{
name = topleft;
pos = (36,700);
}
);
layerId = m002;
shapes = (
{
closed = 1;
nodes = (
(130,0,l),
(130,700,l),
(70,700,l),
(70,0,l)
);
},
{
closed = 1;
nodes = (
(280,0,l),
(280,60,l),
(119,60,l),
(119,0,l)
);
},
{
closed = 1;
nodes = (
(270,311,l),
(270,371,l),
(109,370,l),
(109,310,l)
);
},
{
closed = 1;
nodes = (
(280,640,l),
(280,700,l),
(119,700,l),
(119,640,l)
);
}
);
width = 315;
},
{
anchors = (
{
name = bottom;
pos = (243,0);
},
{
name = ogonek;
pos = (431,10);
},
{
name = top;
pos = (238,700);
},
{
name = topleft;
pos = (28,700);
}
);
layerId = m003;
shapes = (
{
closed = 1;
nodes = (
(230,0,l),
(230,700,l),
(70,700,l),
(70,0,l)
);
},
{
closed = 1;
nodes = (
(380,0,l),
(380,60,l),
(219,60,l),
(219,0,l)
);
},
{
closed = 1;
nodes = (
(370,311,l),
(370,371,l),
(209,370,l),
(209,310,l)
);
},
{
closed = 1;
nodes = (
(380,640,l),
(380,700,l),
(219,700,l),
(219,640,l)
);
}
);
width = 415;
}
);
metricLeft = H;
metricRight = "=H/2";
unicode = 69;
},
{
glyphname = F;
lastChange = "2025-02-18 10:11:42 +0000";
layers = (
{
layerId = m01;
shapes = (
{
closed = 1;
nodes = (
(230,0,l),
(230,630,l),
(70,630,l),
(70,0,l)
);
},
{
closed = 1;
nodes = (
(230,0,l),
(230,630,l)
);
},
{
closed = 1;
nodes = (
(380,580,l),
(380,630,l),
(219,630,l),
(219,580,l)
);
},
{
closed = 1;
nodes = (
(369,290,l),
(369,340,l),
(208,339,l),
(208,289,l)
);
}
);
width = 415;
},
{
layerId = m002;
shapes = (
{
closed = 1;
nodes = (
(140,0,l),
(140,700,l),
(70,700,l),
(70,0,l)
);
},
{
closed = 1;
nodes = (
(140,0,l),
(140,700,l)
);
},
{
closed = 1;
nodes = (
(290,640,l),
(290,700,l),
(129,700,l),
(129,640,l)
);
},
{
closed = 1;
nodes = (
(279,311,l),
(279,371,l),
(118,370,l),
(118,310,l)
);
}
);
width = 325;
},
{
layerId = m003;
shapes = (
{
closed = 1;
nodes = (
(230,0,l),
(230,700,l),
(70,700,l),
(70,0,l)
);
},
{
closed = 1;
nodes = (
(230,0,l),
(230,700,l)
);
},
{
closed = 1;
nodes = (
(380,640,l),
(380,700,l),
(219,700,l),
(219,640,l)
);
},
{
closed = 1;
nodes = (
(369,311,l),
(369,371,l),
(208,370,l),
(208,310,l)
);
}
);
width = 415;
}
);
metricLeft = H;
metricRight = "=H/2";
unicode = 70;
},
{
glyphname = G;
lastChange = "2025-02-18 10:12:05 +0000";
layers = (
{
layerId = m01;
shapes = (
{
closed = 1;
nodes = (
(230,0,l),
(230,630,l),
(70,630,l),
(70,0,l)
);
},
{
closed = 1;
nodes = (
(391,0,l),
(391,60,l),
(219,60,l),
(219,0,l)
);
},
{
closed = 1;
nodes = (
(440,0,l),
(440,340,l),
(380,340,l),
(380,0,l)
);
},
{
closed = 1;
nodes = (
(391,290,l),
(391,340,l),
(320,340,l),
(320,290,l)
);
},
{
closed = 1;
nodes = (
(440,580,l),
(439,630,l),
(169,630,l),
(169,580,l)
);
}
);
width = 475;
},
{
layerId = m002;
shapes = (
{
closed = 1;
nodes = (
(130,0,l),
(130,700,l),
(70,700,l),
(70,0,l)
);
},
{
closed = 1;
nodes = (
(291,0,l),
(291,60,l),
(119,60,l),
(119,0,l)
);
},
{
closed = 1;
nodes = (
(340,0,l),
(340,340,l),
(280,340,l),
(280,0,l)
);
},
{
closed = 1;
nodes = (
(291,280,l),
(291,340,l),
(210,340,l),
(210,280,l)
);
},
{
closed = 1;
nodes = (
(340,640,l),
(339,700,l),
(70,700,l),
(70,640,l)
);
}
);
width = 375;
},
{
layerId = m003;
shapes = (
{
closed = 1;
nodes = (
(230,0,l),
(230,700,l),
(70,700,l),
(70,0,l)
);
},
{
closed = 1;
nodes = (
(391,0,l),
(391,60,l),
(219,60,l),
(219,0,l)
);
},
{
closed = 1;
nodes = (
(440,0,l),
(440,340,l),
(380,340,l),
(380,0,l)
);
},
{
closed = 1;
nodes = (
(391,280,l),
(391,340,l),
(320,340,l),
(320,280,l)
);
},
{
closed = 1;
nodes = (
(440,640,l),
(439,700,l),
(169,700,l),
(169,640,l)
);
}
);
width = 475;
}
);
metricLeft = H;
metricRight = "=H/2";
unicode = 71;
},
{
color = 4;
glyphname = H;
lastChange = "2025-06-19 10:24:57 +0000";
layers = (
{
layerId = m01;
shapes = (
{
closed = 1;
nodes = (
(440,0,l),
(440,630,l),
(280,630,l),
(280,0,l)
);
},
{
closed = 1;
nodes = (
(130,0,l),
(130,630,l),
(70,630,l),
(70,0,l)
);
},
{
closed = 1;
nodes = (
(291,290,l),
(291,340,l),
(119,340,l),
(119,290,l)
);
}
);
width = 510;
},
{
associatedMasterId = m002;
layerId = "B89D507F-2966-4FA6-B71C-9BE74F77134D";
width = 600;
},
{
layerId = m002;
shapes = (
{
closed = 1;
nodes = (
(280,700,l),
(340,700,l),
(340,0,l),
(280,0,l)
);
},
{
closed = 1;
nodes = (
(130,700,l),
(130,0,l),
(70,0,l),
(70,700,l)
);
},
{
closed = 1;
nodes = (
(291,370,l),
(291,310,l),
(119,310,l),
(119,370,l)
);
}
);
width = 410;
},
{
layerId = m003;
shapes = (
{
closed = 1;
nodes = (
(540,0,l),
(540,700,l),
(380,700,l),
(380,370,l),
(230,370,l),
(230,700,l),
(70,700,l),
(70,0,l),
(230,0,l),
(230,310,l),
(380,310,l),
(380,0,l)
);
}
);
width = 610;
}
);
unicode = 72;
},
{
glyphname = I;
lastChange = "2025-02-18 14:12:45 +0000";
layers = (
{
anchors = (
{
name = bottom;
pos = (100,0);
},
{
name = ogonek;
pos = (180,10);
},
{
name = top;
pos = (100,630);
},
{
name = topleft;
pos = (20,630);
}
);
layerId = m01;
shapes = (
{
closed = 1;
nodes = (
(70,630,l),
(70,0,l),
(130,0,l),
(130,630,l)
);
}
);
width = 200;
},
{
anchors = (
{
name = bottom;
pos = (100,0);
},
{
name = ogonek;
pos = (216,10);
},
{
name = top;
pos = (100,700);
},
{
name = topleft;
pos = (-25,700);
}
);
layerId = m002;
shapes = (
{
closed = 1;
nodes = (
(70,700,l),
(70,0,l),
(130,0,l),
(130,700,l)
);
}
);
width = 200;
},
{
anchors = (
{
name = bottom;
pos = (150,0);
},
{
name = ogonek;
pos = (266,10);
},
{
name = top;
pos = (150,700);
},
{
name = topleft;
pos = (25,700);
}
);
layerId = m003;
shapes = (
{
closed = 1;
nodes = (
(70,700,l),
(70,0,l),
(230,0,l),
(230,700,l)
);
}
);
width = 300;
}
);
metricLeft = H;
metricRight = H;
unicode = 73;
},
{
glyphname = J;
lastChange = "2025-06-10 09:07:32 +0000";
layers = (
{
layerId = m01;
shapes = (
{
closed = 1;
nodes = (
(335,0,l),
(335,622,l),
(335,630,l),
(185,630,l),
(185,0,l)
);
},
{
closed = 1;
nodes = (
(185,0,l),
(185,50,l),
(35,50,l),
(35,0,l)
);
},
{
closed = 1;
nodes = (
(95,40,l),
(95,150,l),
(35,150,l),
(35,40,l)
);
}
);
width = 405;
},
{
layerId = m002;
shapes = (
{
closed = 1;
nodes = (
(35,160,l),
(95,160,l),
(95,60,l),
(35,60,l)
);
},
{
closed = 1;
nodes = (
(35,60,l),
(35,0,l),
(185,0,l),
(185,60,l)
);
},
{
closed = 1;
nodes = (
(245,700,l),
(185,700,l),
(185,0,l),
(245,0,l)
);
}
);
width = 315;
},
{
layerId = m003;
shapes = (
{
closed = 1;
nodes = (
(335,0,l),
(335,650,l),
(335,700,l),
(185,700,l),
(185,0,l)
);
},
{
closed = 1;
nodes = (
(195,0,l),
(195,60,l),
(35,60,l),
(35,0,l)
);
},
{
closed = 1;
nodes = (
(95,50,l),
(95,160,l),
(35,160,l),
(35,50,l)
);
}
);
width = 405;
}
);
metricLeft = "=H/2";
metricRight = H;
unicode = 74;
},
{
glyphname = K;
lastChange = "2025-02-18 10:11:16 +0000";
layers = (
{
layerId = m01;
shapes = (
{
closed = 1;
nodes = (
(130,0,l),
(130,630,l),
(70,630,l),
(70,0,l)
);
},
{
closed = 1;
nodes = (
(340,290,l),
(340,340,l),
(125,340,l),
(125,290,l)
);
},
{
closed = 1;
nodes = (
(280,340,l),
(441,340,l),
(441,630,l),
(280,630,l)
);
},
{
closed = 1;
nodes = (
(280,0,l),
(441,0,l),
(441,290,l),
(280,290,l)
);
}
);
width = 511;
},
{
layerId = m002;
shapes = (
{
closed = 1;
nodes = (
(130,0,l),
(130,700,l),
(70,700,l),
(70,0,l)
);
},
{
closed = 1;
nodes = (
(280,313,l),
(280,370,l),
(125,370,l),
(125,313,l)
);
},
{
closed = 1;
nodes = (
(280,370,l),
(340,370,l),
(340,700,l),
(280,700,l)
);
},
{
closed = 1;
nodes = (
(280,0,l),
(340,0,l),
(340,313,l),
(280,313,l)
);
}
);
width = 410;
},
{
layerId = m003;
shapes = (
{
closed = 1;
nodes = (
(230,0,l),
(230,700,l),
(70,700,l),
(70,0,l)
);
},
{
closed = 1;
nodes = (
(440,313,l),
(440,370,l),
(225,370,l),
(225,313,l)
);
},
{
closed = 1;
nodes = (
(380,370,l),
(541,370,l),
(541,700,l),
(380,700,l)
);
},
{
closed = 1;
nodes = (
(380,0,l),
(541,0,l),
(541,313,l),
(380,313,l)
);
}
);
width = 611;
}
);
metricLeft = H;
metricRight = H;
unicode = 75;
},
{
glyphname = L;
lastChange = "2025-06-10 09:10:10 +0000";
layers = (
{
anchors = (
{
name = bottom;
pos = (208,0);
},
{
name = center;
pos = (208,315);
},
{
name = top;
pos = (151,672);
},
{
name = topright;
pos = (395,630);
}
);
layerId = m01;
shapes = (
{
closed = 1;
nodes = (
(230,0,l),
(230,672,l),
(70,672,l),
(70,0,l)
);
},
{
closed = 1;
nodes = (
(380,0,l),
(380,60,l),
(220,60,l),
(220,0,l)
);
}
);
width = 415;
},
{
anchors = (
{
name = bottom;
pos = (119,0);
},
{
name = center;
pos = (119,350);
},
{
name = top;
pos = (106,700);
},
{
name = topright;
pos = (308,700);
}
);
layerId = m002;
shapes = (
{
closed = 1;
nodes = (
(140,0,l),
(140,700,l),
(70,700,l),
(70,0,l)
);
},
{
closed = 1;
nodes = (
(290,0,l),
(290,60,l),
(130,60,l),
(130,0,l)
);
}
);
width = 325;
},
{
anchors = (
{
name = bottom;
pos = (209,0);
},
{
name = center;
pos = (209,350);
},
{
name = top;
pos = (149,700);
},
{
name = topright;
pos = (398,700);
}
);
layerId = m003;
shapes = (
{
closed = 1;
nodes = (
(230,0,l),
(230,700,l),
(70,700,l),
(70,0,l)
);
},
{
closed = 1;
nodes = (
(380,0,l),
(380,60,l),
(220,60,l),
(220,0,l)
);
}
);
width = 415;
}
);
metricLeft = H;
metricRight = "=H/2";
unicode = 76;
},
{
glyphname = Lcaron;
lastChange = "2024-11-27 21:21:06 +0000";
layers = (
{
layerId = m01;
shapes = (
{
pos = (-11,0);
ref = L;
},
{
closed = 1;
nodes = (
(341,539,l),
(341,699,l),
(281,699,l),
(281,539,l)
);
}
);
width = 418;
},
{
layerId = m002;
shapes = (
{
pos = (-11,0);
ref = L;
},
{
closed = 1;
nodes = (
(341,539,l),
(341,699,l),
(281,699,l),
(281,539,l)
);
}
);
width = 418;
},
{
layerId = m003;
shapes = (
{
pos = (-11,0);
ref = L;
},
{
closed = 1;
nodes = (
(341,539,l),
(341,699,l),
(281,699,l),
(281,539,l)
);
}
);
width = 418;
}
);
unicode = 317;
},
{
glyphname = M;
lastChange = "2025-02-18 13:33:15 +0000";
layers = (
{
layerId = m01;
shapes = (
{
closed = 1;
nodes = (
(654,0,l),
(654,630,l),
(494,630,l),
(494,0,l)
);
},
{
closed = 1;
nodes = (
(130,0,l),
(130,630,l),
(70,630,l),
(70,0,l)
);
},
{
closed = 1;
nodes = (
(348,0,l),
(137,630,l),
(74,630,l),
(285,0,l)
);
},
{
closed = 1;
nodes = (
(552,630,l),
(489,630,l),
(278,0,l),
(341,0,l)
);
}
);
width = 724;
},
{
layerId = m002;
shapes = (
{
closed = 1;
nodes = (
(554,0,l),
(554,700,l),
(494,700,l),
(494,0,l)
);
},
{
closed = 1;
nodes = (
(130,0,l),
(130,700,l),
(70,700,l),
(70,0,l)
);
},
{
closed = 1;
nodes = (
(348,0,l),
(137,700,l),
(74,700,l),
(285,0,l)
);
},
{
closed = 1;
nodes = (
(552,700,l),
(489,700,l),
(278,0,l),
(341,0,l)
);
}
);
width = 624;
},
{
layerId = m003;
shapes = (
{
closed = 1;
nodes = (
(754,0,l),
(754,700,l),
(594,700,l),
(594,0,l)
);
},
{
closed = 1;
nodes = (
(230,0,l),
(230,700,l),
(70,700,l),
(70,0,l)
);
},
{
closed = 1;
nodes = (
(448,0,l),
(237,700,l),
(174,700,l),
(385,0,l)
);
},
{
closed = 1;
nodes = (
(652,700,l),
(589,700,l),
(378,0,l),
(441,0,l)
);
}
);
width = 824;
}
);
metricLeft = H;
metricRight = H;
unicode = 77;
},
{
glyphname = N;
lastChange = "2025-02-18 14:13:21 +0000";
layers = (
{
anchors = (
{
name = bottom;
pos = (255,0);
},
{
name = top;
pos = (255,630);
}
);
layerId = m01;
shapes = (
{
closed = 1;
nodes = (
(440,0,l),
(440,630,l),
(280,630,l),
(280,0,l)
);
},
{
closed = 1;
nodes = (
(130,0,l),
(130,630,l),
(70,630,l),
(70,0,l)
);
},
{
closed = 1;
nodes = (
(344,0,l),
(133,630,l),
(70,630,l),
(281,0,l)
);
}
);
width = 510;
},
{
anchors = (
{
name = bottom;
pos = (207,0);
},
{
name = top;
pos = (207,700);
}
);
layerId = m002;
shapes = (
{
closed = 1;
nodes = (
(340,0,l),
(340,700,l),
(280,700,l),
(280,0,l)
);
},
{
closed = 1;
nodes = (
(130,0,l),
(130,700,l),
(70,700,l),
(70,0,l)
);
},
{
closed = 1;
nodes = (
(340,14,l),
(133,700,l),
(70,700,l),
(281,0,l)
);
}
);
width = 410;
},
{
anchors = (
{
name = bottom;
pos = (356,0);
},
{
name = top;
pos = (303,700);
}
);
layerId = m003;
shapes = (
{
closed = 1;
nodes = (
(540,0,l),
(540,700,l),
(380,700,l),
(380,0,l)
);
},
{
closed = 1;
nodes = (
(230,0,l),
(230,700,l),
(70,700,l),
(70,0,l)
);
},
{
closed = 1;
nodes = (
(444,0,l),
(233,700,l),
(170,700,l),
(381,0,l)
);
}
);
width = 610;
}
);
metricLeft = H;
metricRight = H;
unicode = 78;
},
{
glyphname = O;
lastChange = "2025-02-18 14:13:28 +0000";
layers = (
{
anchors = (
{
name = bottom;
pos = (255,0);
},
{
name = center;
pos = (255,315);
},
{
name = ogonek;
pos = (459,10);
},
{
name = top;
pos = (255,630);
},
{
name = topleft;
pos = (20,630);
},
{
name = topright;
pos = (490,630);
}
);
layerId = m01;
shapes = (
{
closed = 1;
nodes = (
(440,0,l),
(440,630,l),
(70,630,l),
(70,0,l)
);
},
{
closed = 1;
nodes = (
(130,580,l),
(280,580,l),
(280,50,l),
(130,50,l)
);
}
);
width = 510;
},
{
anchors = (
{
name = bottom;
pos = (252,0);
},
{
name = center;
pos = (252,350);
},
{
name = ogonek;
pos = (353,10);
},
{
name = top;
pos = (206,700);
},
{
name = topleft;
pos = (22,700);
},
{
name = topright;
pos = (354,700);
}
);
layerId = m002;
shapes = (
{
closed = 1;
nodes = (
(340,0,l),
(340,700,l),
(70,700,l),
(70,0,l)
);
},
{
closed = 1;
nodes = (
(130,640,l),
(280,640,l),
(280,60,l),
(130,60,l)
);
}
);
width = 410;
},
{
anchors = (
{
name = bottom;
pos = (305,0);
},
{
name = center;
pos = (352,350);
},
{
name = ogonek;
pos = (552,10);
},
{
name = top;
pos = (307,700);
},
{
name = topleft;
pos = (122,700);
},
{
name = topright;
pos = (582,700);
}
);
layerId = m003;
shapes = (
{
closed = 1;
nodes = (
(540,0,l),
(540,700,l),
(70,700,l),
(70,0,l)
);
},
{
closed = 1;
nodes = (
(230,640,l),
(380,640,l),
(380,60,l),
(230,60,l)
);
}
);
width = 610;
}
);
metricLeft = H;
metricRight = H;
unicode = 79;
},
{
glyphname = P;
lastChange = "2025-02-18 13:28:02 +0000";
layers = (
{
layerId = m01;
shapes = (
{
closed = 1;
nodes = (
(440,230,l),
(440,630,l),
(112,630,l),
(112,580,l),
(280,580,l),
(280,230,l)
);
},
{
closed = 1;
nodes = (
(130,0,l),
(130,630,l),
(70,630,l),
(70,0,l)
);
},
{
closed = 1;
nodes = (
(291,230,l),
(291,280,l),
(119,280,l),
(119,230,l)
);
}
);
width = 475;
},
{
layerId = m002;
shapes = (
{
closed = 1;
nodes = (
(340,283,l),
(340,700,l),
(112,700,l),
(112,640,l),
(280,640,l),
(280,283,l)
);
},
{
closed = 1;
nodes = (
(130,0,l),
(130,700,l),
(70,700,l),
(70,0,l)
);
},
{
closed = 1;
nodes = (
(291,283,l),
(291,343,l),
(119,343,l),
(119,283,l)
);
}
);
width = 375;
},
{
layerId = m003;
shapes = (
{
closed = 1;
nodes = (
(540,283,l),
(540,700,l),
(212,700,l),
(212,640,l),
(380,640,l),
(380,283,l)
);
},
{
closed = 1;
nodes = (
(230,0,l),
(230,700,l),
(70,700,l),
(70,0,l)
);
},
{
closed = 1;
nodes = (
(391,283,l),
(391,343,l),
(219,343,l),
(219,283,l)
);
}
);
width = 575;
}
);
metricLeft = H;
metricRight = "=H/2";
unicode = 80;
},
{
glyphname = Q;
lastChange = "2025-02-14 10:40:19 +0000";
layers = (
{
layerId = m01;
shapes = (
{
closed = 1;
nodes = (
(235,-120,l),
(235,120,l),
(175,120,l),
(175,-120,l)
);
},
{
ref = O;
}
);
width = 510;
},
{
layerId = m002;
shapes = (
{
closed = 1;
nodes = (
(235,-120,l),
(235,120,l),
(175,120,l),
(175,-120,l)
);
},
{
ref = O;
}
);
width = 410;
},
{
layerId = m003;
shapes = (
{
closed = 1;
nodes = (
(334,-120,l),
(334,120,l),
(274,120,l),
(274,-120,l)
);
},
{
ref = O;
}
);
width = 610;
}
);
metricLeft = H;
metricRight = H;
unicode = 81;
},
{
glyphname = R;
lastChange = "2025-02-18 14:13:36 +0000";
layers = (
{
anchors = (
{
name = bottom;
pos = (255,0);
},
{
name = top;
pos = (255,630);
}
);
layerId = m01;
shapes = (
{
closed = 1;
nodes = (
(440,0,l),
(440,290,l),
(337,290,l),
(337,340,l),
(440,340,l),
(440,630,l),
(70,630,l),
(70,0,l),
(130,0,l),
(130,290,l),
(280,290,l),
(280,0,l)
);
},
{
closed = 1;
nodes = (
(130,580,l),
(280,580,l),
(280,340,l),
(130,340,l)
);
}
);
width = 510;
},
{
anchors = (
{
name = bottom;
pos = (208,0);
},
{
name = top;
pos = (205,700);
}
);
layerId = m002;
shapes = (
{
closed = 1;
nodes = (
(340,0,l),
(340,310,l),
(280,310,l),
(280,0,l)
);
},
{
closed = 1;
nodes = (
(280,370,l),
(340,370,l),
(340,700,l),
(70,700,l),
(70,0,l),
(130,0,l),
(130,310,l),
(280,310,l)
);
},
{
closed = 1;
nodes = (
(130,640,l),
(280,640,l),
(280,370,l),
(130,370,l)
);
}
);
width = 410;
},
{
anchors = (
{
name = bottom;
pos = (357,0);
},
{
name = top;
pos = (357,700);
}
);
layerId = m003;
shapes = (
{
closed = 1;
nodes = (
(540,0,l),
(540,310,l),
(437,310,l),
(437,370,l),
(540,370,l),
(540,700,l),
(70,700,l),
(70,0,l),
(230,0,l),
(230,310,l),
(380,310,l),
(380,0,l)
);
},
{
closed = 1;
nodes = (
(230,640,l),
(380,640,l),
(380,370,l),
(230,370,l)
);
}
);
width = 610;
}
);
metricLeft = H;
metricRight = H;
unicode = 82;
},
{
glyphname = S;
kernLeft = S;
kernRight = S;
lastChange = "2025-06-19 10:35:22 +0000";
layers = (
{
anchors = (
{
name = bottom;
pos = (248,0);
},
{
name = top;
pos = (323,630);
}
);
layerId = m01;
shapes = (
{
closed = 1;
nodes = (
(323,0,l),
(323,580,l),
(413,580,l),
(413,470,l),
(473,470,l),
(473,630,l),
(173,630,l),
(173,50,l),
(83,50,l),
(83,160,l),
(23,160,l),
(23,0,l)
);
}
);
width = 508;
},
{
anchors = (
{
name = bottom;
pos = (208,0);
},
{
name = top;
pos = (283,700);
}
);
layerId = m002;
shapes = (
{
closed = 1;
nodes = (
(243,0,l),
(243,640,l),
(333,640,l),
(333,540,l),
(393,540,l),
(393,700,l),
(173,700,l),
(173,60,l),
(83,60,l),
(83,160,l),
(23,160,l),
(23,0,l)
);
}
);
width = 428;
},
{
anchors = (
{
name = bottom;
pos = (348,0);
},
{
name = top;
pos = (423,700);
}
);
layerId = m003;
shapes = (
{
closed = 1;
nodes = (
(423,0,l),
(423,640,l),
(513,640,l),
(513,540,l),
(673,540,l),
(673,700,l),
(273,700,l),
(273,60,l),
(183,60,l),
(183,160,l),
(23,160,l),
(23,0,l)
);
}
);
width = 708;
}
);
metricLeft = "=H/3";
metricRight = "=H/2";
unicode = 83;
},
{
glyphname = T;
kernLeft = T;
kernRight = T;
lastChange = "2025-06-19 10:25:11 +0000";
layers = (
{
anchors = (
{
name = bottom;
pos = (248,0);
},
{
name = center;
pos = (248,315);
},
{
name = top;
pos = (248,630);
}
);
layerId = m01;
shapes = (
{
closed = 1;
nodes = (
(323,0,l),
(323,580,l),
(473,580,l),
(473,630,l),
(23,630,l),
(23,580,l),
(173,580,l),
(173,0,l)
);
}
);
width = 496;
},
{
anchors = (
{
name = bottom;
pos = (203,0);
},
{
name = center;
pos = (203,350);
},
{
name = top;
pos = (203,700);
}
);
layerId = m002;
shapes = (
{
closed = 1;
nodes = (
(233,0,l),
(233,640,l),
(383,640,l),
(383,700,l),
(23,700,l),
(23,640,l),
(173,640,l),
(173,0,l)
);
}
);
width = 406;
},
{
anchors = (
{
name = bottom;
pos = (248,0);
},
{
name = center;
pos = (248,350);
},
{
name = top;
pos = (248,700);
}
);
layerId = m003;
shapes = (
{
closed = 1;
nodes = (
(323,0,l),
(323,640,l),
(473,640,l),
(473,700,l),
(23,700,l),
(23,640,l),
(173,640,l),
(173,0,l)
);
}
);
width = 496;
}
);
metricLeft = "=H/3";
metricRight = "=H/3";
unicode = 84;
},
{
glyphname = U;
lastChange = "2025-02-18 14:14:03 +0000";
layers = (
{
anchors = (
{
name = bottom;
pos = (255,0);
},
{
name = ogonek;
pos = (459,10);
},
{
name = top;
pos = (255,630);
},
{
name = topright;
pos = (490,630);
}
);
layerId = m01;
shapes = (
{
closed = 1;
nodes = (
(440,0,l),
(440,630,l),
(280,630,l),
(280,60,l),
(112,60,l),
(112,0,l)
);
},
{
closed = 1;
nodes = (
(130,0,l),
(130,630,l),
(70,630,l),
(70,0,l)
);
}
);
width = 510;
},
{
anchors = (
{
name = bottom;
pos = (263,0);
},
{
name = ogonek;
pos = (351,10);
},
{
name = top;
pos = (207,700);
},
{
name = topright;
pos = (381,700);
}
);
layerId = m002;
shapes = (
{
closed = 1;
nodes = (
(340,0,l),
(340,700,l),
(280,700,l),
(280,60,l),
(112,60,l),
(112,0,l)
);
},
{
closed = 1;
nodes = (
(130,0,l),
(130,700,l),
(70,700,l),
(70,0,l)
);
}
);
width = 410;
},
{
anchors = (
{
name = bottom;
pos = (306,0);
},
{
name = ogonek;
pos = (563,10);
},
{
name = top;
pos = (306,700);
},
{
name = topright;
pos = (593,700);
}
);
layerId = m003;
shapes = (
{
closed = 1;
nodes = (
(540,0,l),
(540,700,l),
(380,700,l),
(380,60,l),
(212,60,l),
(212,0,l)
);
},
{
closed = 1;
nodes = (
(230,0,l),
(230,700,l),
(70,700,l),
(70,0,l)
);
}
);
width = 610;
}
);
metricLeft = H;
metricRight = H;
unicode = 85;
},
{
glyphname = V;
lastChange = "2025-02-18 13:32:36 +0000";
layers = (
{
layerId = m01;
shapes = (
{
closed = 1;
nodes = (
(406,630,l),
(246,630,l),
(246,0,l),
(406,0,l)
);
},
{
closed = 1;
nodes = (
(96,630,l),
(35,630,l),
(185,0,l),
(246,0,l)
);
}
);
width = 476;
},
{
layerId = m002;
shapes = (
{
closed = 1;
nodes = (
(305,700,l),
(245,700,l),
(242,0,l),
(302,0,l)
);
},
{
closed = 1;
nodes = (
(96,700,l),
(35,700,l),
(185,0,l),
(246,0,l)
);
}
);
width = 375;
},
{
layerId = m003;
shapes = (
{
closed = 1;
nodes = (
(505,700,l),
(348,700,l),
(327,0,l),
(502,0,l)
);
},
{
closed = 1;
nodes = (
(199,700,l),
(35,700,l),
(185,0,l),
(349,0,l)
);
}
);
width = 575;
}
);
metricLeft = "=H/2";
metricRight = H;
unicode = 86;
},
{
glyphname = W;
lastChange = "2025-06-10 08:48:33 +0000";
layers = (
{
layerId = m01;
shapes = (
{
closed = 1;
nodes = (
(622,630,l),
(459,630,l),
(460,0,l),
(619,0,l)
);
},
{
closed = 1;
nodes = (
(310,630,l),
(249,630,l),
(399,0,l),
(460,0,l)
);
},
{
closed = 1;
nodes = (
(308,630,l),
(245,630,l),
(246,0,l),
(305,0,l)
);
},
{
closed = 1;
nodes = (
(96,630,l),
(35,630,l),
(185,0,l),
(246,0,l)
);
}
);
width = 692;
},
{
layerId = m002;
shapes = (
{
closed = 1;
nodes = (
(522,700,l),
(459,700,l),
(460,0,l),
(519,0,l)
);
},
{
closed = 1;
nodes = (
(307,700,l),
(246,700,l),
(461,0,l),
(522,0,l)
);
},
{
closed = 1;
nodes = (
(309,700,l),
(246,700,l),
(247,0,l),
(306,0,l)
);
},
{
closed = 1;
nodes = (
(96,700,l),
(35,700,l),
(248,0,l),
(309,0,l)
);
}
);
width = 592;
},
{
layerId = m003;
shapes = (
{
closed = 1;
nodes = (
(722,700,l),
(562,700,l),
(563,0,l),
(719,0,l)
);
},
{
closed = 1;
nodes = (
(413,700,l),
(352,700,l),
(502,0,l),
(563,0,l)
);
},
{
closed = 1;
nodes = (
(411,700,l),
(348,700,l),
(349,0,l),
(408,0,l)
);
},
{
closed = 1;
nodes = (
(199,700,l),
(35,700,l),
(185,0,l),
(349,0,l)
);
}
);
width = 792;
}
);
metricLeft = "=H/2";
metricRight = H;
unicode = 87;
},
{
glyphname = X;
lastChange = "2025-02-18 13:30:27 +0000";
layers = (
{
layerId = m01;
shapes = (
{
closed = 1;
nodes = (
(370,0,l),
(370,630,l),
(210,630,l),
(210,0,l)
);
},
{
closed = 1;
nodes = (
(35,630,l),
(260,186,l),
(316,211,l),
(102,630,l)
);
},
{
closed = 1;
nodes = (
(546,0,l),
(321,444,l),
(265,419,l),
(479,0,l)
);
}
);
width = 581;
},
{
layerId = m002;
shapes = (
{
closed = 1;
nodes = (
(270,0,l),
(270,700,l),
(210,700,l),
(210,0,l)
);
},
{
closed = 1;
nodes = (
(35,700,l),
(260,256,l),
(316,281,l),
(102,700,l)
);
},
{
closed = 1;
nodes = (
(458,0,l),
(233,444,l),
(177,419,l),
(391,0,l)
);
}
);
width = 493;
},
{
layerId = m003;
shapes = (
{
closed = 1;
nodes = (
(370,0,l),
(370,700,l),
(210,700,l),
(210,0,l)
);
},
{
closed = 1;
nodes = (
(35,700,l),
(260,256,l),
(316,281,l),
(102,700,l)
);
},
{
closed = 1;
nodes = (
(546,0,l),
(321,444,l),
(265,419,l),
(479,0,l)
);
}
);
width = 581;
}
);
metricLeft = "=H/2";
metricRight = "=H/2";
unicode = 88;
},
{
glyphname = Y;
lastChange = "2025-02-18 14:14:13 +0000";
layers = (
{
anchors = (
{
name = bottom;
pos = (238,0);
},
{
name = top;
pos = (238,630);
},
{
name = topleft;
pos = (20,630);
}
);
layerId = m01;
shapes = (
{
closed = 1;
nodes = (
(405,0,l),
(405,630,l),
(245,630,l),
(245,0,l)
);
},
{
closed = 1;
nodes = (
(35,630,l),
(260,186,l),
(316,211,l),
(102,630,l)
);
}
);
width = 475;
},
{
anchors = (
{
name = bottom;
pos = (208,0);
},
{
name = top;
pos = (208,700);
},
{
name = topleft;
pos = (-15,700);
}
);
layerId = m002;
shapes = (
{
closed = 1;
nodes = (
(305,0,l),
(305,700,l),
(245,700,l),
(245,0,l)
);
},
{
closed = 1;
nodes = (
(35,700,l),
(249,279,l),
(305,304,l),
(102,700,l)
);
}
);
width = 375;
},
{
anchors = (
{
name = bottom;
pos = (208,0);
},
{
name = top;
pos = (208,700);
},
{
name = topleft;
pos = (-15,700);
}
);
layerId = m003;
shapes = (
{
closed = 1;
nodes = (
(405,0,l),
(405,700,l),
(245,700,l),
(245,0,l)
);
},
{
closed = 1;
nodes = (
(35,700,l),
(260,256,l),
(316,281,l),
(102,700,l)
);
}
);
width = 475;
}
);
metricLeft = "=H/2";
metricRight = H;
unicode = 89;
},
{
glyphname = Z;
lastChange = "2025-06-10 09:12:00 +0000";
layers = (
{
anchors = (
{
name = bottom;
pos = (278,0);
},
{
name = center;
pos = (278,315);
},
{
name = top;
pos = (185,630);
}
);
layerId = m01;
shapes = (
{
closed = 1;
nodes = (
(335,0,l),
(335,630,l),
(185,630,l),
(185,0,l)
);
},
{
closed = 1;
nodes = (
(486,0,l),
(486,50,l),
(325,50,l),
(325,0,l)
);
},
{
closed = 1;
nodes = (
(486,50,l),
(486,160,l),
(426,160,l),
(426,50,l)
);
},
{
closed = 1;
nodes = (
(95,470,l),
(95,590,l),
(35,590,l),
(35,470,l)
);
},
{
closed = 1;
nodes = (
(195,580,l),
(195,630,l),
(35,630,l),
(35,580,l)
);
}
);
width = 556;
},
{
anchors = (
{
name = bottom;
pos = (215,0);
},
{
name = center;
pos = (215,350);
},
{
name = top;
pos = (139,700);
}
);
layerId = m002;
shapes = (
{
closed = 1;
nodes = (
(245,0,l),
(245,700,l),
(185,700,l),
(185,0,l)
);
},
{
closed = 1;
nodes = (
(396,0,l),
(396,60,l),
(236,60,l),
(236,0,l)
);
},
{
closed = 1;
nodes = (
(396,50,l),
(396,160,l),
(336,160,l),
(336,50,l)
);
},
{
closed = 1;
nodes = (
(95,540,l),
(95,650,l),
(35,650,l),
(35,540,l)
);
},
{
closed = 1;
nodes = (
(195,640,l),
(195,700,l),
(35,700,l),
(35,640,l)
);
}
);
width = 431;
},
{
anchors = (
{
name = bottom;
pos = (360,0);
},
{
name = center;
pos = (360,350);
},
{
name = top;
pos = (284,700);
}
);
layerId = m003;
shapes = (
{
closed = 1;
nodes = (
(435,0,l),
(435,700,l),
(285,700,l),
(285,0,l)
);
},
{
closed = 1;
nodes = (
(686,0,l),
(686,60,l),
(426,60,l),
(426,0,l)
);
},
{
closed = 1;
nodes = (
(195,540,l),
(195,650,l),
(35,650,l),
(35,540,l)
);
},
{
closed = 1;
nodes = (
(686,50,l),
(686,160,l),
(526,160,l),
(526,50,l)
);
},
{
closed = 1;
nodes = (
(295,640,l),
(295,700,l),
(35,700,l),
(35,640,l)
);
}
);
width = 756;
}
);
metricLeft = "=H/2";
metricRight = H;
unicode = 90;
},
{
glyphname = Q.ss01;
lastChange = "2025-02-20 13:01:21 +0000";
layers = (
{
layerId = m01;
shapes = (
{
ref = O;
},
{
closed = 1;
nodes = (
(344,-120,l),
(223,120,l),
(156,120,l),
(277,-120,l)
);
}
);
width = 510;
},
{
layerId = m002;
shapes = (
{
closed = 1;
nodes = (
(235,-120,l),
(235,120,l),
(175,120,l),
(175,-120,l)
);
},
{
ref = O;
}
);
width = 410;
},
{
layerId = m003;
shapes = (
{
closed = 1;
nodes = (
(334,-120,l),
(334,120,l),
(274,120,l),
(274,-120,l)
);
},
{
ref = O;
}
);
width = 610;
}
);
metricLeft = H;
metricRight = H;
},
{
glyphname = a;
lastChange = "2025-06-10 09:03:55 +0000";
layers = (
{
anchors = (
{
name = bottom;
pos = (186,0);
},
{
name = ogonek;
pos = (378,10);
},
{
name = top;
pos = (186,400);
}
);
layerId = m01;
shapes = (
{
closed = 1;
nodes = (
(345,0,l),
(345,400,l),
(185,400,l),
(185,235,l),
(35,235,l),
(35,0,l)
);
},
{
closed = 1;
nodes = (
(95,185,l),
(185,185,l),
(185,50,l),
(95,50,l)
);
},
{
closed = 1;
nodes = (
(195,350,l),
(195,400,l),
(35,400,l),
(35,350,l)
);
}
);
width = 415;
},
{
associatedMasterId = m002;
layerId = "B89D507F-2966-4FA6-B71C-9BE74F77134D";
width = 600;
},
{
anchors = (
{
name = bottom;
pos = (138,0);
},
{
name = ogonek;
pos = (278,10);
},
{
name = top;
pos = (134,400);
}
);
layerId = m002;
shapes = (
{
closed = 1;
nodes = (
(245,400,l),
(245,0,l),
(35,0,l),
(35,235,l),
(185,235,l),
(185,400,l)
);
},
{
closed = 1;
nodes = (
(95,60,l),
(185,60,l),
(185,175,l),
(95,175,l)
);
},
{
closed = 1;
nodes = (
(185,340,l),
(35,340,l),
(35,400,l),
(185,400,l)
);
}
);
width = 315;
},
{
anchors = (
{
name = bottom;
pos = (241,0);
},
{
name = ogonek;
pos = (478,10);
},
{
name = top;
pos = (243,400);
}
);
layerId = m003;
shapes = (
{
closed = 1;
nodes = (
(445,400,l),
(445,0,l),
(35,0,l),
(35,235,l),
(285,235,l),
(285,400,l)
);
},
{
closed = 1;
nodes = (
(195,60,l),
(285,60,l),
(285,175,l),
(195,175,l)
);
},
{
closed = 1;
nodes = (
(285,340,l),
(35,340,l),
(35,400,l),
(285,400,l)
);
}
);
width = 515;
}
);
metricLeft = "=H/2";
metricRight = H;
unicode = 97;
},
{
glyphname = b;
lastChange = "2025-02-18 14:38:46 +0000";
layers = (
{
layerId = m01;
shapes = (
{
closed = 1;
nodes = (
(70,0,l),
(70,700,l),
(130,700,l),
(130,400,l),
(390,400,l),
(390,0,l)
);
},
{
closed = 1;
nodes = (
(230,50,l),
(230,350,l),
(130,350,l),
(130,50,l)
);
}
);
width = 460;
},
{
layerId = m002;
shapes = (
{
closed = 1;
nodes = (
(70,0,l),
(70,700,l),
(130,700,l),
(130,400,l),
(290,400,l),
(290,0,l)
);
},
{
closed = 1;
nodes = (
(230,60,l),
(230,340,l),
(130,340,l),
(130,60,l)
);
}
);
width = 360;
},
{
layerId = m003;
shapes = (
{
closed = 1;
nodes = (
(70,0,l),
(70,700,l),
(230,700,l),
(230,400,l),
(490,400,l),
(490,0,l)
);
},
{
closed = 1;
nodes = (
(330,60,l),
(330,340,l),
(230,340,l),
(230,60,l)
);
}
);
width = 560;
}
);
metricLeft = H;
metricRight = H;
unicode = 98;
},
{
glyphname = c;
lastChange = "2025-02-18 14:38:40 +0000";
layers = (
{
anchors = (
{
name = bottom;
pos = (229,0);
},
{
name = top;
pos = (229,400);
}
);
layerId = m01;
shapes = (
{
closed = 1;
nodes = (
(230,50,l),
(230,350,l),
(380,350,l),
(380,400,l),
(70,400,l),
(70,0,l),
(380,0,l),
(380,50,l)
);
}
);
width = 415;
},
{
anchors = (
{
name = bottom;
pos = (183,0);
},
{
name = top;
pos = (181,400);
}
);
layerId = m002;
shapes = (
{
closed = 1;
nodes = (
(140,60,l),
(140,340,l),
(290,340,l),
(290,400,l),
(70,400,l),
(70,0,l),
(290,0,l),
(290,60,l)
);
}
);
width = 325;
},
{
anchors = (
{
name = bottom;
pos = (229,0);
},
{
name = top;
pos = (229,400);
}
);
layerId = m003;
shapes = (
{
closed = 1;
nodes = (
(230,60,l),
(230,340,l),
(380,340,l),
(380,400,l),
(70,400,l),
(70,0,l),
(380,0,l),
(380,60,l)
);
}
);
width = 415;
}
);
metricLeft = H;
metricRight = "=H/2";
unicode = 99;
},
{
glyphname = d;
lastChange = "2025-02-25 09:58:24 +0000";
layers = (
{
layerId = m01;
shapes = (
{
closed = 1;
nodes = (
(70,400,l),
(320,400,l),
(320,630,l),
(380,630,l),
(380,0,l),
(70,0,l)
);
},
{
closed = 1;
nodes = (
(320,350,l),
(220,350,l),
(220,50,l),
(320,50,l)
);
}
);
width = 450;
},
{
layerId = m002;
shapes = (
{
closed = 1;
nodes = (
(70,400,l),
(230,400,l),
(230,700,l),
(290,700,l),
(290,0,l),
(70,0,l)
);
},
{
closed = 1;
nodes = (
(230,340,l),
(130,340,l),
(130,60,l),
(230,60,l)
);
}
);
width = 360;
},
{
layerId = m003;
shapes = (
{
closed = 1;
nodes = (
(70,400,l),
(320,400,l),
(320,700,l),
(480,700,l),
(480,0,l),
(70,0,l)
);
},
{
closed = 1;
nodes = (
(320,340,l),
(220,340,l),
(220,60,l),
(320,60,l)
);
}
);
width = 550;
}
);
metricLeft = H;
metricRight = H;
unicode = 100;
},
{
glyphname = dcaron;
lastChange = "2025-02-14 10:43:21 +0000";
layers = (
{
layerId = m01;
shapes = (
{
ref = d;
},
{
closed = 1;
nodes = (
(503,539,l),
(503,699,l),
(443,699,l),
(443,539,l)
);
}
);
width = 573;
},
{
layerId = m002;
shapes = (
{
ref = d;
},
{
closed = 1;
nodes = (
(393,539,l),
(393,699,l),
(333,699,l),
(333,539,l)
);
}
);
width = 463;
},
{
layerId = m003;
shapes = (
{
ref = d;
},
{
closed = 1;
nodes = (
(603,539,l),
(603,699,l),
(543,699,l),
(543,539,l)
);
}
);
width = 673;
}
);
metricLeft = H;
metricRight = H;
unicode = 271;
},
{
glyphname = e;
lastChange = "2025-02-18 14:38:22 +0000";
layers = (
{
anchors = (
{
name = bottom;
pos = (203,0);
},
{
name = ogonek;
pos = (382,10);
},
{
name = top;
pos = (220,400);
}
);
layerId = m01;
shapes = (
{
closed = 1;
nodes = (
(220,50,l),
(380,50,l),
(380,0,l),
(70,0,l),
(70,400,l),
(380,400,l),
(380,180,l),
(220,180,l)
);
},
{
closed = 1;
nodes = (
(220,230,l),
(320,230,l),
(320,350,l),
(220,350,l)
);
}
);
width = 415;
},
{
anchors = (
{
name = bottom;
pos = (174,0);
},
{
name = ogonek;
pos = (382,10);
},
{
name = top;
pos = (183,400);
}
);
layerId = m002;
shapes = (
{
closed = 1;
nodes = (
(130,60,l),
(290,60,l),
(290,0,l),
(70,0,l),
(70,400,l),
(290,400,l),
(290,180,l),
(130,180,l)
);
},
{
closed = 1;
nodes = (
(130,240,l),
(230,240,l),
(230,340,l),
(130,340,l)
);
}
);
width = 325;
},
{
anchors = (
{
name = bottom;
pos = (203,0);
},
{
name = ogonek;
pos = (382,10);
},
{
name = top;
pos = (220,400);
}
);
layerId = m003;
shapes = (
{
closed = 1;
nodes = (
(220,60,l),
(380,60,l),
(380,0,l),
(70,0,l),
(70,400,l),
(380,400,l),
(380,180,l),
(220,180,l)
);
},
{
closed = 1;
nodes = (
(220,240,l),
(320,240,l),
(320,340,l),
(220,340,l)
);
}
);
width = 415;
}
);
metricLeft = H;
metricRight = "=H/2";
unicode = 101;
},
{
glyphname = f;
lastChange = "2025-02-18 14:21:01 +0000";
layers = (
{
layerId = m01;
shapes = (
{
closed = 1;
nodes = (
(70,0,l),
(130,0,l),
(130,630,l),
(70,630,l)
);
},
{
closed = 1;
nodes = (
(70,580,l),
(230,580,l),
(230,630,l),
(70,630,l)
);
},
{
closed = 1;
nodes = (
(70,339,l),
(230,339,l),
(230,389,l),
(70,389,l)
);
}
);
width = 265;
},
{
layerId = m002;
shapes = (
{
closed = 1;
nodes = (
(70,0,l),
(130,0,l),
(130,700,l),
(70,700,l)
);
},
{
closed = 1;
nodes = (
(70,640,l),
(230,640,l),
(230,700,l),
(70,700,l)
);
},
{
closed = 1;
nodes = (
(70,339,l),
(230,339,l),
(230,399,l),
(70,399,l)
);
}
);
width = 265;
},
{
layerId = m003;
shapes = (
{
closed = 1;
nodes = (
(70,0,l),
(230,0,l),
(230,700,l),
(70,700,l)
);
},
{
closed = 1;
nodes = (
(170,640,l),
(330,640,l),
(330,700,l),
(170,700,l)
);
},
{
closed = 1;
nodes = (
(170,339,l),
(330,339,l),
(330,399,l),
(170,399,l)
);
}
);
width = 365;
}
);
metricLeft = H;
metricRight = "=H/2";
unicode = 102;
},
{
glyphname = g;
lastChange = "2025-02-18 14:38:05 +0000";
layers = (
{
layerId = m01;
shapes = (
{
closed = 1;
nodes = (
(380,-200,l),
(380,400,l),
(70,400,l),
(70,0,l),
(230,0,l),
(230,-200,l)
);
},
{
closed = 1;
nodes = (
(130,350,l),
(230,350,l),
(230,50,l),
(130,50,l)
);
},
{
closed = 1;
nodes = (
(70,-200,l),
(230,-200,l),
(230,-150,l),
(70,-150,l)
);
}
);
width = 450;
},
{
layerId = m002;
shapes = (
{
closed = 1;
nodes = (
(290,-200,l),
(290,400,l),
(70,400,l),
(70,0,l),
(230,0,l),
(230,-200,l)
);
},
{
closed = 1;
nodes = (
(130,340,l),
(230,340,l),
(230,60,l),
(130,60,l)
);
},
{
closed = 1;
nodes = (
(124,-200,l),
(230,-200,l),
(230,-140,l),
(124,-140,l)
);
}
);
width = 360;
},
{
layerId = m003;
shapes = (
{
closed = 1;
nodes = (
(480,-200,l),
(480,400,l),
(70,400,l),
(70,0,l),
(330,0,l),
(330,-200,l)
);
},
{
closed = 1;
nodes = (
(230,340,l),
(330,340,l),
(330,60,l),
(230,60,l)
);
},
{
closed = 1;
nodes = (
(224,-200,l),
(330,-200,l),
(330,-140,l),
(224,-140,l)
);
}
);
width = 550;
}
);
metricLeft = H;
metricRight = H;
unicode = 103;
},
{
glyphname = h;
lastChange = "2025-02-25 09:58:17 +0000";
layers = (
{
layerId = m01;
shapes = (
{
closed = 1;
nodes = (
(70,0,l),
(70,630,l),
(128,630,l),
(128,399,l),
(413,400,l),
(413,0,l),
(242,0,l),
(242,349,l),
(128,349,l),
(128,0,l)
);
}
);
width = 483;
},
{
layerId = m002;
shapes = (
{
closed = 1;
nodes = (
(70,0,l),
(70,700,l),
(128,700,l),
(128,399,l),
(293,400,l),
(293,0,l),
(242,0,l),
(242,342,l),
(128,342,l),
(128,0,l)
);
}
);
width = 363;
},
{
layerId = m003;
shapes = (
{
closed = 1;
nodes = (
(70,0,l),
(70,700,l),
(230,700,l),
(230,399,l),
(515,400,l),
(515,0,l),
(344,0,l),
(344,342,l),
(230,342,l),
(230,0,l)
);
}
);
width = 585;
}
);
metricLeft = H;
metricRight = H;
unicode = 104;
},
{
glyphname = i;
lastChange = "2025-02-25 10:03:03 +0000";
layers = (
{
layerId = m01;
shapes = (
{
ref = dotaccentcomb;
},
{
ref = idotless;
}
);
width = 216;
},
{
layerId = m002;
shapes = (
{
ref = idotless;
},
{
pos = (-10,0);
ref = dotaccentcomb;
}
);
width = 200;
},
{
layerId = m003;
shapes = (
{
closed = 1;
nodes = (
(229,488,l),
(229,647,l),
(70,647,l),
(70,488,l)
);
},
{
ref = idotless;
}
);
width = 300;
}
);
metricLeft = H;
metricRight = H;
unicode = 105;
},
{
glyphname = idotless;
lastChange = "2025-02-19 09:46:26 +0000";
layers = (
{
anchors = (
{
name = bottom;
pos = (100,0);
},
{
name = ogonek;
pos = (130,0);
},
{
name = top;
pos = (100,400);
}
);
layerId = m01;
shapes = (
{
closed = 1;
nodes = (
(70,0,l),
(130,0,l),
(130,400,l),
(70,400,l)
);
}
);
width = 200;
},
{
anchors = (
{
name = bottom;
pos = (98,0);
},
{
name = ogonek;
pos = (130,0);
},
{
name = top;
pos = (98,370);
}
);
layerId = m002;
shapes = (
{
closed = 1;
nodes = (
(70,0,l),
(130,0,l),
(130,400,l),
(70,400,l)
);
}
);
width = 200;
},
{
anchors = (
{
name = bottom;
pos = (148,0);
},
{
name = ogonek;
pos = (180,0);
},
{
name = top;
pos = (148,370);
}
);
layerId = m003;
shapes = (
{
closed = 1;
nodes = (
(70,0,l),
(230,0,l),
(230,400,l),
(70,400,l)
);
}
);
width = 300;
}
);
metricLeft = H;
metricRight = H;
unicode = 305;
},
{
glyphname = j;
lastChange = "2025-02-25 10:04:21 +0000";
layers = (
{
layerId = m01;
shapes = (
{
ref = jdotless;
},
{
pos = (65,0);
ref = dotaccentcomb;
}
);
width = 266;
},
{
layerId = m002;
shapes = (
{
closed = 1;
nodes = (
(193,-200,l),
(35,-200,l),
(35,-143,l),
(136,-143,l),
(135,400,l),
(193,400,l)
);
},
{
closed = 1;
nodes = (
(201,488,l),
(201,564,l),
(125,564,l),
(125,488,l)
);
}
);
width = 271;
},
{
layerId = m003;
shapes = (
{
closed = 1;
nodes = (
(193,-200,l),
(35,-200,l),
(35,-143,l),
(136,-143,l),
(135,400,l),
(193,400,l)
);
},
{
closed = 1;
nodes = (
(201,488,l),
(201,564,l),
(125,564,l),
(125,488,l)
);
}
);
width = 271;
}
);
metricLeft = "=H/2";
metricRight = H;
unicode = 106;
},
{
glyphname = jdotless;
lastChange = "2025-02-19 09:51:25 +0000";
layers = (
{
anchors = (
{
name = bottom;
pos = (133,-200);
},
{
name = top;
pos = (165,400);
}
);
layerId = m01;
shapes = (
{
closed = 1;
nodes = (
(196,-200,l),
(35,-200,l),
(35,-150,l),
(136,-150,l),
(135,400,l),
(196,400,l)
);
}
);
width = 266;
},
{
layerId = m002;
shapes = (
{
closed = 1;
nodes = (
(193,-200,l),
(35,-200,l),
(35,-143,l),
(136,-143,l),
(135,400,l),
(193,400,l)
);
}
);
width = 263;
},
{
layerId = m003;
shapes = (
{
closed = 1;
nodes = (
(295,-200,l),
(35,-200,l),
(35,-143,l),
(136,-143,l),
(135,400,l),
(295,400,l)
);
}
);
width = 365;
}
);
metricLeft = "=H/2";
metricRight = H;
unicode = 567;
},
{
glyphname = k;
lastChange = "2025-02-18 14:37:32 +0000";
layers = (
{
layerId = m01;
shapes = (
{
closed = 1;
nodes = (
(70,0,l),
(70,699,l),
(130,699,l),
(130,228,l),
(230,228,l),
(230,399,l),
(380,400,l),
(380,0,l),
(230,0,l),
(230,178,l),
(130,178,l),
(130,0,l)
);
},
{
closed = 1;
nodes = (
(380,178,l),
(380,228,l),
(290,228,l),
(290,178,l)
);
}
);
width = 450;
},
{
layerId = m002;
shapes = (
{
closed = 1;
nodes = (
(70,0,l),
(70,699,l),
(130,699,l),
(130,228,l),
(230,228,l),
(230,399,l),
(290,400,l),
(290,0,l),
(230,0,l),
(230,168,l),
(130,168,l),
(130,0,l)
);
},
{
closed = 1;
nodes = (
(290,168,l),
(290,228,l),
(230,228,l),
(230,168,l)
);
}
);
width = 360;
},
{
layerId = m003;
shapes = (
{
closed = 1;
nodes = (
(70,0,l),
(70,699,l),
(230,699,l),
(230,228,l),
(330,228,l),
(330,399,l),
(480,400,l),
(480,0,l),
(330,0,l),
(330,168,l),
(230,168,l),
(230,0,l)
);
},
{
closed = 1;
nodes = (
(480,168,l),
(480,228,l),
(390,228,l),
(390,168,l)
);
}
);
width = 550;
}
);
metricLeft = H;
metricRight = H;
unicode = 107;
},
{
glyphname = l;
lastChange = "2025-02-18 14:30:52 +0000";
layers = (
{
anchors = (
{
name = bottom;
pos = (100,0);
},
{
name = center;
pos = (100,200);
},
{
name = top;
pos = (100,700);
},
{
name = topright;
pos = (180,800);
}
);
layerId = m01;
shapes = (
{
closed = 1;
nodes = (
(70,0,l),
(130,0,l),
(130,630,l),
(70,630,l)
);
}
);
width = 200;
},
{
anchors = (
{
name = bottom;
pos = (100,0);
},
{
name = center;
pos = (100,200);
},
{
name = top;
pos = (100,700);
},
{
name = topright;
pos = (180,800);
}
);
layerId = m002;
shapes = (
{
closed = 1;
nodes = (
(70,0,l),
(130,0,l),
(130,700,l),
(70,700,l)
);
}
);
width = 200;
},
{
anchors = (
{
name = bottom;
pos = (150,0);
},
{
name = center;
pos = (150,200);
},
{
name = top;
pos = (150,700);
},
{
name = topright;
pos = (230,800);
}
);
layerId = m003;
shapes = (
{
closed = 1;
nodes = (
(70,0,l),
(230,0,l),
(230,700,l),
(70,700,l)
);
}
);
width = 300;
}
);
metricLeft = H;
metricRight = H;
unicode = 108;
},
{
glyphname = lcaron;
lastChange = "2024-11-27 21:21:06 +0000";
layers = (
{
layerId = m01;
shapes = (
{
ref = l;
},
{
closed = 1;
nodes = (
(240,541,l),
(240,701,l),
(180,701,l),
(180,541,l)
);
}
);
width = 200;
},
{
layerId = m002;
shapes = (
{
ref = l;
},
{
closed = 1;
nodes = (
(240,541,l),
(240,701,l),
(180,701,l),
(180,541,l)
);
}
);
width = 200;
},
{
layerId = m003;
shapes = (
{
ref = l;
},
{
closed = 1;
nodes = (
(240,541,l),
(240,701,l),
(180,701,l),
(180,541,l)
);
}
);
width = 200;
}
);
unicode = 318;
},
{
glyphname = m;
lastChange = "2025-02-18 14:37:20 +0000";
layers = (
{
layerId = m01;
shapes = (
{
closed = 1;
nodes = (
(290,350,l),
(390,350,l),
(390,0,l),
(540,0,l),
(540,400,l),
(70,400,l),
(70,0,l),
(130,0,l),
(130,350,l),
(230,350,l),
(230,0,l),
(290,0,l)
);
}
);
width = 610;
},
{
layerId = m002;
shapes = (
{
closed = 1;
nodes = (
(290,340,l),
(390,340,l),
(390,0,l),
(450,0,l),
(450,400,l),
(70,400,l),
(70,0,l),
(130,0,l),
(130,340,l),
(230,340,l),
(230,0,l),
(290,0,l)
);
}
);
width = 520;
},
{
layerId = m003;
shapes = (
{
closed = 1;
nodes = (
(390,340,l),
(490,340,l),
(490,0,l),
(640,0,l),
(640,400,l),
(70,400,l),
(70,0,l),
(230,0,l),
(230,340,l),
(330,340,l),
(330,0,l),
(390,0,l)
);
}
);
width = 710;
}
);
metricLeft = H;
metricRight = H;
unicode = 109;
},
{
glyphname = n;
lastChange = "2025-02-18 14:37:15 +0000";
layers = (
{
anchors = (
{
name = bottom;
pos = (244,0);
},
{
name = top;
pos = (244,400);
}
);
layerId = m01;
shapes = (
{
closed = 1;
nodes = (
(130,350,l),
(130,0,l),
(70,0,l),
(70,400,l),
(394,400,l),
(394,0,l),
(244,0,l),
(244,350,l)
);
}
);
width = 464;
},
{
anchors = (
{
name = bottom;
pos = (189,0);
},
{
name = top;
pos = (189,400);
}
);
layerId = m002;
shapes = (
{
closed = 1;
nodes = (
(130,340,l),
(130,0,l),
(70,0,l),
(70,400,l),
(304,400,l),
(304,0,l),
(244,0,l),
(244,340,l)
);
}
);
width = 374;
},
{
anchors = (
{
name = bottom;
pos = (344,0);
},
{
name = top;
pos = (288,400);
}
);
layerId = m003;
shapes = (
{
closed = 1;
nodes = (
(230,340,l),
(230,0,l),
(70,0,l),
(70,400,l),
(494,400,l),
(494,0,l),
(344,0,l),
(344,340,l)
);
}
);
width = 564;
}
);
metricLeft = H;
metricRight = H;
unicode = 110;
},
{
glyphname = o;
lastChange = "2025-02-18 14:37:09 +0000";
layers = (
{
anchors = (
{
name = bottom;
pos = (225,0);
},
{
name = center;
pos = (225,200);
},
{
name = ogonek;
pos = (445,10);
},
{
name = top;
pos = (225,400);
},
{
name = topright;
pos = (475,400);
}
);
layerId = m01;
shapes = (
{
closed = 1;
nodes = (
(380,0,l),
(380,400,l),
(70,400,l),
(70,0,l)
);
},
{
closed = 1;
nodes = (
(130,350,l),
(230,350,l),
(230,50,l),
(130,50,l)
);
}
);
width = 450;
},
{
anchors = (
{
name = bottom;
pos = (179,0);
},
{
name = center;
pos = (135,200);
},
{
name = ogonek;
pos = (355,10);
},
{
name = top;
pos = (181,400);
},
{
name = topright;
pos = (385,400);
}
);
layerId = m002;
shapes = (
{
closed = 1;
nodes = (
(290,0,l),
(290,400,l),
(70,400,l),
(70,0,l)
);
},
{
closed = 1;
nodes = (
(130,340,l),
(230,340,l),
(230,60,l),
(130,60,l)
);
}
);
width = 360;
},
{
anchors = (
{
name = bottom;
pos = (278,0);
},
{
name = center;
pos = (325,200);
},
{
name = ogonek;
pos = (545,10);
},
{
name = top;
pos = (278,400);
},
{
name = topright;
pos = (575,400);
}
);
layerId = m003;
shapes = (
{
closed = 1;
nodes = (
(480,0,l),
(480,400,l),
(70,400,l),
(70,0,l)
);
},
{
closed = 1;
nodes = (
(230,340,l),
(330,340,l),
(330,60,l),
(230,60,l)
);
}
);
width = 550;
}
);
metricLeft = H;
metricRight = H;
unicode = 111;
},
{
glyphname = p;
lastChange = "2025-02-18 14:36:59 +0000";
layers = (
{
layerId = m01;
shapes = (
{
closed = 1;
nodes = (
(130,-200,l),
(130,-1,l),
(380,-1,l),
(380,400,l),
(70,400,l),
(70,-200,l)
);
},
{
closed = 1;
nodes = (
(130,350,l),
(230,350,l),
(230,49,l),
(130,49,l)
);
}
);
width = 450;
},
{
layerId = m002;
shapes = (
{
closed = 1;
nodes = (
(130,-200,l),
(130,-1,l),
(290,-1,l),
(290,400,l),
(70,400,l),
(70,-200,l)
);
},
{
closed = 1;
nodes = (
(130,343,l),
(230,343,l),
(230,56,l),
(130,56,l)
);
}
);
width = 360;
},
{
layerId = m003;
shapes = (
{
closed = 1;
nodes = (
(230,-200,l),
(230,-1,l),
(480,-1,l),
(480,400,l),
(70,400,l),
(70,-200,l)
);
},
{
closed = 1;
nodes = (
(230,343,l),
(330,343,l),
(330,56,l),
(230,56,l)
);
}
);
width = 550;
}
);
metricLeft = H;
metricRight = H;
unicode = 112;
},
{
glyphname = q;
lastChange = "2025-02-18 14:36:44 +0000";
layers = (
{
layerId = m01;
shapes = (
{
closed = 1;
nodes = (
(380,400,l),
(70,400,l),
(70,-1,l),
(320,-1,l),
(320,-200,l),
(380,-200,l)
);
},
{
closed = 1;
nodes = (
(220,49,l),
(220,350,l),
(320,350,l),
(320,49,l)
);
}
);
width = 450;
},
{
layerId = m002;
shapes = (
{
closed = 1;
nodes = (
(290,400,l),
(70,400,l),
(70,-1,l),
(230,-1,l),
(230,-200,l),
(290,-200,l)
);
},
{
closed = 1;
nodes = (
(130,59,l),
(130,340,l),
(230,340,l),
(230,59,l)
);
}
);
width = 360;
},
{
layerId = m003;
shapes = (
{
closed = 1;
nodes = (
(480,400,l),
(70,400,l),
(70,-1,l),
(320,-1,l),
(320,-200,l),
(480,-200,l)
);
},
{
closed = 1;
nodes = (
(220,59,l),
(220,340,l),
(320,340,l),
(320,59,l)
);
}
);
width = 550;
}
);
metricLeft = H;
metricRight = H;
unicode = 113;
},
{
glyphname = r;
lastChange = "2025-02-18 14:34:06 +0000";
layers = (
{
anchors = (
{
name = bottom;
pos = (189,0);
},
{
name = top;
pos = (189,400);
}
);
layerId = m01;
shapes = (
{
closed = 1;
nodes = (
(320,350,l),
(220,350,l),
(220,0,l),
(70,0,l),
(70,400,l),
(320,400,l)
);
}
);
width = 355;
},
{
anchors = (
{
name = bottom;
pos = (98,0);
},
{
name = top;
pos = (153,400);
}
);
layerId = m002;
shapes = (
{
closed = 1;
nodes = (
(230,340,l),
(130,340,l),
(130,0,l),
(70,0,l),
(70,400,l),
(230,400,l)
);
}
);
width = 265;
},
{
anchors = (
{
name = bottom;
pos = (189,0);
},
{
name = top;
pos = (189,400);
}
);
layerId = m003;
shapes = (
{
closed = 1;
nodes = (
(320,340,l),
(220,340,l),
(220,0,l),
(70,0,l),
(70,400,l),
(320,400,l)
);
}
);
width = 355;
}
);
metricLeft = H;
metricRight = "=H/2";
unicode = 114;
},
{
glyphname = s;
lastChange = "2025-06-19 10:36:42 +0000";
layers = (
{
.lastUpdate = 772022194.782;
anchors = (
{
name = bottom;
pos = (203,0);
},
{
name = top;
pos = (235,400);
}
);
layerId = m01;
shapes = (
{
closed = 1;
nodes = (
(283,0,l),
(283,350,l),
(383,350,l),
(383,400,l),
(123,400,l),
(123,50,l),
(23,50,l),
(23,0,l)
);
}
);
width = 406;
},
{
.lastUpdate = 772022202.718;
anchors = (
{
name = bottom;
pos = (109,0);
},
{
name = top;
pos = (199,400);
}
);
layerId = m002;
shapes = (
{
closed = 1;
nodes = (
(183,0,l),
(183,340,l),
(283,340,l),
(283,400,l),
(123,400,l),
(123,60,l),
(23,60,l),
(23,0,l)
);
}
);
width = 306;
},
{
.lastUpdate = 772022199.348;
anchors = (
{
name = bottom;
pos = (197,0);
},
{
name = top;
pos = (213,400);
}
);
layerId = m003;
shapes = (
{
closed = 1;
nodes = (
(283,0,l),
(283,340,l),
(383,340,l),
(383,400,l),
(123,400,l),
(123,60,l),
(23,60,l),
(23,0,l)
);
}
);
width = 406;
}
);
metricLeft = "=H/3";
metricRight = "=H/3";
unicode = 115;
changeCount = 3;
},
{
glyphname = t;
lastChange = "2025-02-25 10:07:08 +0000";
layers = (
{
layerId = m01;
shapes = (
{
closed = 1;
nodes = (
(95,350,l),
(35,350,l),
(35,400,l),
(95,400,l),
(95,560,l),
(155,560,l),
(155,400,l),
(275,400,l),
(275,350,l),
(155,350,l),
(155,0,l),
(95,0,l)
);
}
);
width = 310;
},
{
layerId = m002;
shapes = (
{
closed = 1;
nodes = (
(95,340,l),
(35,340,l),
(35,400,l),
(95,400,l),
(95,700,l),
(155,700,l),
(155,400,l),
(275,400,l),
(275,340,l),
(155,340,l),
(155,0,l),
(95,0,l)
);
}
);
width = 310;
},
{
layerId = m003;
shapes = (
{
closed = 1;
nodes = (
(95,350,l),
(35,350,l),
(35,400,l),
(95,400,l),
(95,672,l),
(255,672,l),
(255,400,l),
(375,400,l),
(375,350,l),
(255,350,l),
(255,0,l),
(95,0,l)
);
}
);
width = 410;
}
);
metricLeft = "=H/2";
metricRight = "=H/2";
unicode = 116;
},
{
glyphname = tcaron;
lastChange = "2024-11-27 21:21:06 +0000";
layers = (
{
layerId = m01;
shapes = (
{
ref = t;
},
{
closed = 1;
nodes = (
(291,539,l),
(291,699,l),
(231,699,l),
(231,539,l)
);
}
);
width = 327;
},
{
layerId = m002;
shapes = (
{
ref = t;
},
{
closed = 1;
nodes = (
(291,539,l),
(291,699,l),
(231,699,l),
(231,539,l)
);
}
);
width = 327;
},
{
layerId = m003;
shapes = (
{
ref = t;
},
{
closed = 1;
nodes = (
(291,539,l),
(291,699,l),
(231,699,l),
(231,539,l)
);
}
);
width = 327;
}
);
unicode = 357;
},
{
glyphname = u;
lastChange = "2025-02-18 14:39:07 +0000";
layers = (
{
anchors = (
{
name = bottom;
pos = (225,0);
},
{
name = ogonek;
pos = (405,10);
},
{
name = top;
pos = (225,400);
},
{
name = topright;
pos = (430,400);
}
);
layerId = m01;
shapes = (
{
closed = 1;
nodes = (
(130,50,l),
(130,400,l),
(70,400,l),
(70,0,l),
(380,0,l),
(380,400,l),
(230,400,l),
(230,50,l)
);
}
);
width = 450;
},
{
anchors = (
{
name = bottom;
pos = (225,0);
},
{
name = ogonek;
pos = (307,10);
},
{
name = top;
pos = (177,400);
},
{
name = topright;
pos = (310,400);
}
);
layerId = m002;
shapes = (
{
closed = 1;
nodes = (
(130,57,l),
(130,400,l),
(70,400,l),
(70,0,l),
(290,0,l),
(290,400,l),
(230,400,l),
(230,57,l)
);
}
);
width = 360;
},
{
anchors = (
{
name = bottom;
pos = (325,0);
},
{
name = ogonek;
pos = (508,10);
},
{
name = top;
pos = (253,400);
},
{
name = topright;
pos = (538,400);
}
);
layerId = m003;
shapes = (
{
closed = 1;
nodes = (
(230,57,l),
(230,400,l),
(70,400,l),
(70,0,l),
(480,0,l),
(480,400,l),
(330,400,l),
(330,57,l)
);
}
);
width = 550;
}
);
metricLeft = H;
metricRight = H;
unicode = 117;
},
{
glyphname = v;
lastChange = "2024-11-28 10:16:43 +0000";
layers = (
{
layerId = m01;
shapes = (
{
closed = 1;
nodes = (
(398,0,l),
(398,400,l),
(238,400,l),
(238,0,l)
);
},
{
closed = 1;
nodes = (
(305,0,l),
(102,400,l),
(35,400,l),
(238,0,l)
);
}
);
width = 468;
},
{
layerId = m002;
shapes = (
{
closed = 1;
nodes = (
(298,0,l),
(298,400,l),
(238,400,l),
(238,0,l)
);
},
{
closed = 1;
nodes = (
(298,14,l),
(102,400,l),
(35,400,l),
(238,0,l)
);
}
);
width = 368;
},
{
layerId = m003;
shapes = (
{
closed = 1;
nodes = (
(510,0,l),
(510,400,l),
(350,400,l),
(350,0,l)
);
},
{
closed = 1;
nodes = (
(417,0,l),
(214,400,l),
(35,400,l),
(238,0,l)
);
}
);
width = 580;
}
);
metricLeft = "=H/2";
metricRight = H;
unicode = 118;
},
{
glyphname = w;
lastChange = "2024-11-28 10:20:01 +0000";
layers = (
{
layerId = m01;
shapes = (
{
closed = 1;
nodes = (
(305,0,l),
(305,400,l),
(245,400,l),
(245,0,l)
);
},
{
closed = 1;
nodes = (
(305,0,l),
(102,400,l),
(35,400,l),
(238,0,l)
);
},
{
closed = 1;
nodes = (
(608,0,l),
(608,400,l),
(448,400,l),
(448,0,l)
);
},
{
closed = 1;
nodes = (
(515,0,l),
(312,400,l),
(245,400,l),
(448,0,l)
);
}
);
width = 678;
},
{
layerId = m002;
shapes = (
{
closed = 1;
nodes = (
(305,0,l),
(305,400,l),
(245,400,l),
(245,0,l)
);
},
{
closed = 1;
nodes = (
(305,0,l),
(102,400,l),
(35,400,l),
(238,0,l)
);
},
{
closed = 1;
nodes = (
(508,0,l),
(508,400,l),
(448,400,l),
(448,0,l)
);
},
{
closed = 1;
nodes = (
(508,14,l),
(312,400,l),
(245,400,l),
(448,0,l)
);
}
);
width = 578;
},
{
layerId = m003;
shapes = (
{
closed = 1;
nodes = (
(417,0,l),
(417,400,l),
(357,400,l),
(357,0,l)
);
},
{
closed = 1;
nodes = (
(417,0,l),
(214,400,l),
(35,400,l),
(238,0,l)
);
},
{
closed = 1;
nodes = (
(720,0,l),
(720,400,l),
(560,400,l),
(560,0,l)
);
},
{
closed = 1;
nodes = (
(627,0,l),
(424,400,l),
(357,400,l),
(560,0,l)
);
}
);
width = 790;
}
);
metricLeft = "=H/2";
metricRight = H;
unicode = 119;
},
{
glyphname = x;
lastChange = "2024-11-27 21:21:06 +0000";
layers = (
{
layerId = m01;
shapes = (
{
closed = 1;
nodes = (
(322,400,l),
(162,400,l),
(162,0,l),
(322,0,l)
);
},
{
closed = 1;
nodes = (
(220,173,l),
(102,400,l),
(35,400,l),
(164,148,l)
);
},
{
closed = 1;
nodes = (
(265,217,l),
(377,0,l),
(444,0,l),
(321,242,l)
);
}
);
width = 479;
},
{
layerId = m002;
shapes = (
{
closed = 1;
nodes = (
(222,400,l),
(162,400,l),
(162,0,l),
(222,0,l)
);
},
{
closed = 1;
nodes = (
(220,173,l),
(102,400,l),
(35,400,l),
(164,148,l)
);
},
{
closed = 1;
nodes = (
(165,217,l),
(277,0,l),
(344,0,l),
(221,242,l)
);
}
);
width = 379;
},
{
layerId = m003;
shapes = (
{
closed = 1;
nodes = (
(322,400,l),
(162,400,l),
(162,0,l),
(322,0,l)
);
},
{
closed = 1;
nodes = (
(220,173,l),
(102,400,l),
(35,400,l),
(164,148,l)
);
},
{
closed = 1;
nodes = (
(265,217,l),
(377,0,l),
(444,0,l),
(321,242,l)
);
}
);
width = 479;
}
);
metricLeft = "=H/2";
metricRight = "=H/2";
unicode = 120;
},
{
glyphname = y;
lastChange = "2025-02-18 14:36:00 +0000";
layers = (
{
anchors = (
{
name = bottom;
pos = (250,0);
},
{
name = top;
pos = (250,400);
}
);
layerId = m01;
shapes = (
{
closed = 1;
nodes = (
(420,-200,l),
(420,400,l),
(260,400,l),
(260,-200,l)
);
},
{
closed = 1;
nodes = (
(316,-19,l),
(102,400,l),
(35,400,l),
(260,-44,l)
);
},
{
closed = 1;
nodes = (
(140,-200,l),
(260,-200,l),
(260,-150,l),
(140,-150,l)
);
}
);
width = 490;
},
{
anchors = (
{
name = bottom;
pos = (250,0);
},
{
name = top;
pos = (187,400);
}
);
layerId = m002;
shapes = (
{
closed = 1;
nodes = (
(320,-200,l),
(320,400,l),
(260,400,l),
(260,-200,l)
);
},
{
closed = 1;
nodes = (
(316,-19,l),
(102,400,l),
(35,400,l),
(260,-44,l)
);
},
{
closed = 1;
nodes = (
(140,-200,l),
(260,-200,l),
(260,-140,l),
(140,-140,l)
);
}
);
width = 390;
},
{
anchors = (
{
name = bottom;
pos = (250,0);
},
{
name = top;
pos = (250,400);
}
);
layerId = m003;
shapes = (
{
closed = 1;
nodes = (
(420,-200,l),
(420,400,l),
(260,400,l),
(260,-200,l)
);
},
{
closed = 1;
nodes = (
(316,-19,l),
(102,400,l),
(35,400,l),
(260,-44,l)
);
},
{
closed = 1;
nodes = (
(140,-200,l),
(260,-200,l),
(260,-140,l),
(140,-140,l)
);
}
);
width = 490;
}
);
metricLeft = "=H/2";
metricRight = H;
unicode = 121;
},
{
glyphname = z;
lastChange = "2025-02-18 14:35:49 +0000";
layers = (
{
anchors = (
{
name = bottom;
pos = (205,0);
},
{
name = center;
pos = (205,200);
},
{
name = top;
pos = (174,400);
}
);
layerId = m01;
shapes = (
{
closed = 1;
nodes = (
(135,0,l),
(295,0,l),
(295,400,l),
(135,400,l)
);
},
{
closed = 1;
nodes = (
(35,350,l),
(135,350,l),
(135,400,l),
(35,400,l)
);
},
{
closed = 1;
nodes = (
(295,0,l),
(395,0,l),
(395,50,l),
(295,50,l)
);
}
);
width = 430;
},
{
anchors = (
{
name = bottom;
pos = (207,0);
},
{
name = center;
pos = (165,200);
},
{
name = top;
pos = (123,400);
}
);
layerId = m002;
shapes = (
{
closed = 1;
nodes = (
(135,0,l),
(195,0,l),
(195,400,l),
(135,400,l)
);
},
{
closed = 1;
nodes = (
(35,340,l),
(135,340,l),
(135,400,l),
(35,400,l)
);
},
{
closed = 1;
nodes = (
(195,0,l),
(295,0,l),
(295,60,l),
(195,60,l)
);
}
);
width = 330;
},
{
anchors = (
{
name = bottom;
pos = (205,0);
},
{
name = center;
pos = (205,200);
},
{
name = top;
pos = (192,400);
}
);
layerId = m003;
shapes = (
{
closed = 1;
nodes = (
(135,0,l),
(295,0,l),
(295,400,l),
(135,400,l)
);
},
{
closed = 1;
nodes = (
(35,340,l),
(135,340,l),
(135,400,l),
(35,400,l)
);
},
{
closed = 1;
nodes = (
(295,0,l),
(395,0,l),
(395,60,l),
(295,60,l)
);
}
);
width = 430;
}
);
metricLeft = "=H/2";
metricRight = "=H/2";
unicode = 122;
},
{
glyphname = f.ss01;
lastChange = "2025-02-18 14:46:01 +0000";
layers = (
{
layerId = m01;
shapes = (
{
closed = 1;
nodes = (
(70,0,l),
(190,0,l),
(190,630,l),
(70,630,l)
);
},
{
closed = 1;
nodes = (
(130,580,l),
(290,580,l),
(290,630,l),
(130,630,l)
);
},
{
closed = 1;
nodes = (
(130,349,l),
(290,349,l),
(290,399,l),
(130,399,l)
);
}
);
width = 325;
},
{
layerId = m002;
shapes = (
{
closed = 1;
nodes = (
(70,0,l),
(130,0,l),
(130,700,l),
(70,700,l)
);
},
{
closed = 1;
nodes = (
(70,640,l),
(230,640,l),
(230,700,l),
(70,700,l)
);
},
{
closed = 1;
nodes = (
(70,339,l),
(230,339,l),
(230,399,l),
(70,399,l)
);
}
);
width = 265;
},
{
layerId = m003;
shapes = (
{
closed = 1;
nodes = (
(70,0,l),
(230,0,l),
(230,700,l),
(70,700,l)
);
},
{
closed = 1;
nodes = (
(170,640,l),
(330,640,l),
(330,700,l),
(170,700,l)
);
},
{
closed = 1;
nodes = (
(170,339,l),
(330,339,l),
(330,399,l),
(170,399,l)
);
}
);
width = 365;
}
);
metricLeft = H;
metricRight = "=H/2";
},
{
glyphname = i.ss01;
lastChange = "2025-02-25 10:09:03 +0000";
layers = (
{
layerId = m01;
shapes = (
{
ref = idotless.ss01;
},
{
ref = dotaccentcomb.ss01;
}
);
width = 260;
},
{
layerId = m002;
shapes = (
{
ref = idotless;
},
{
pos = (-10,0);
ref = dotaccentcomb;
}
);
width = 200;
},
{
layerId = m003;
shapes = (
{
closed = 1;
nodes = (
(229,488,l),
(229,647,l),
(70,647,l),
(70,488,l)
);
},
{
ref = idotless;
}
);
width = 300;
}
);
metricLeft = H;
metricRight = H;
},
{
glyphname = idotless.ss01;
lastChange = "2025-02-19 09:49:04 +0000";
layers = (
{
anchors = (
{
name = bottom;
pos = (130,0);
},
{
name = ogonek;
pos = (190,0);
},
{
name = top;
pos = (130,400);
}
);
layerId = m01;
shapes = (
{
closed = 1;
nodes = (
(70,0,l),
(190,0,l),
(190,400,l),
(70,400,l)
);
}
);
width = 260;
},
{
anchors = (
{
name = bottom;
pos = (98,0);
},
{
name = ogonek;
pos = (130,0);
},
{
name = top;
pos = (98,370);
}
);
layerId = m002;
shapes = (
{
closed = 1;
nodes = (
(70,0,l),
(130,0,l),
(130,400,l),
(70,400,l)
);
}
);
width = 200;
},
{
anchors = (
{
name = bottom;
pos = (148,0);
},
{
name = ogonek;
pos = (180,0);
},
{
name = top;
pos = (148,370);
}
);
layerId = m003;
shapes = (
{
closed = 1;
nodes = (
(70,0,l),
(230,0,l),
(230,400,l),
(70,400,l)
);
}
);
width = 300;
}
);
metricLeft = H;
metricRight = H;
},
{
glyphname = j.ss01;
lastChange = "2025-02-25 10:09:17 +0000";
layers = (
{
layerId = m01;
shapes = (
{
ref = jdotless.ss01;
},
{
pos = (66,0);
ref = dotaccentcomb.ss01;
}
);
width = 325;
},
{
layerId = m002;
shapes = (
{
closed = 1;
nodes = (
(193,-200,l),
(35,-200,l),
(35,-143,l),
(136,-143,l),
(135,400,l),
(193,400,l)
);
},
{
closed = 1;
nodes = (
(201,488,l),
(201,564,l),
(125,564,l),
(125,488,l)
);
}
);
width = 271;
},
{
layerId = m003;
shapes = (
{
closed = 1;
nodes = (
(193,-200,l),
(35,-200,l),
(35,-143,l),
(136,-143,l),
(135,400,l),
(193,400,l)
);
},
{
closed = 1;
nodes = (
(201,488,l),
(201,564,l),
(125,564,l),
(125,488,l)
);
}
);
width = 271;
}
);
metricLeft = "=H/2";
metricRight = H;
},
{
glyphname = jdotless.ss01;
lastChange = "2025-02-19 09:54:28 +0000";
layers = (
{
anchors = (
{
name = bottom;
pos = (163,-200);
},
{
name = top;
pos = (196,400);
}
);
layerId = m01;
shapes = (
{
closed = 1;
nodes = (
(255,-200,l),
(35,-200,l),
(35,-150,l),
(136,-150,l),
(135,400,l),
(255,400,l)
);
}
);
width = 325;
},
{
layerId = m002;
shapes = (
{
closed = 1;
nodes = (
(193,-200,l),
(35,-200,l),
(35,-143,l),
(136,-143,l),
(135,400,l),
(193,400,l)
);
}
);
width = 263;
},
{
layerId = m003;
shapes = (
{
closed = 1;
nodes = (
(295,-200,l),
(35,-200,l),
(35,-143,l),
(136,-143,l),
(135,400,l),
(295,400,l)
);
}
);
width = 365;
}
);
metricLeft = "=H/2";
metricRight = H;
},
{
glyphname = l.ss01;
lastChange = "2025-02-19 10:06:46 +0000";
layers = (
{
anchors = (
{
name = bottom;
pos = (100,0);
},
{
name = center;
pos = (100,200);
},
{
name = top;
pos = (100,700);
},
{
name = topright;
pos = (180,800);
}
);
layerId = m01;
shapes = (
{
closed = 1;
nodes = (
(70,0,l),
(190,0,l),
(190,630,l),
(70,630,l)
);
}
);
width = 260;
},
{
anchors = (
{
name = bottom;
pos = (100,0);
},
{
name = center;
pos = (100,200);
},
{
name = top;
pos = (100,700);
},
{
name = topright;
pos = (180,800);
}
);
layerId = m002;
shapes = (
{
closed = 1;
nodes = (
(70,0,l),
(130,0,l),
(130,700,l),
(70,700,l)
);
}
);
width = 200;
},
{
anchors = (
{
name = bottom;
pos = (150,0);
},
{
name = center;
pos = (150,200);
},
{
name = top;
pos = (150,700);
},
{
name = topright;
pos = (230,800);
}
);
layerId = m003;
shapes = (
{
closed = 1;
nodes = (
(70,0,l),
(230,0,l),
(230,700,l),
(70,700,l)
);
}
);
width = 300;
}
);
metricLeft = H;
metricRight = H;
},
{
glyphname = t.ss01;
lastChange = "2025-06-19 10:23:01 +0000";
layers = (
{
layerId = m01;
shapes = (
{
closed = 1;
nodes = (
(95,350,l),
(35,350,l),
(35,400,l),
(95,400,l),
(95,560,l),
(215,560,l),
(215,400,l),
(335,400,l),
(335,350,l),
(215,350,l),
(215,0,l),
(95,0,l)
);
}
);
width = 358;
},
{
layerId = m002;
shapes = (
{
closed = 1;
nodes = (
(95,340,l),
(35,340,l),
(35,400,l),
(95,400,l),
(95,560,l),
(155,560,l),
(155,400,l),
(275,400,l),
(275,340,l),
(155,340,l),
(155,0,l),
(95,0,l)
);
}
);
width = 298;
},
{
layerId = m003;
shapes = (
{
closed = 1;
nodes = (
(95,350,l),
(35,350,l),
(35,400,l),
(95,400,l),
(95,560,l),
(255,560,l),
(255,400,l),
(375,400,l),
(375,350,l),
(255,350,l),
(255,0,l),
(95,0,l)
);
}
);
width = 398;
}
);
metricLeft = "=H/2";
metricRight = "=H/3";
},
{
glyphname = f_f;
lastChange = "2025-02-18 14:32:14 +0000";
layers = (
{
layerId = m002;
shapes = (
{
ref = f;
},
{
pos = (265,0);
ref = f;
}
);
width = 530;
},
{
layerId = m01;
shapes = (
{
closed = 1;
nodes = (
(70,0,l),
(130,0,l),
(130,630,l),
(70,630,l)
);
},
{
closed = 1;
nodes = (
(70,580,l),
(230,580,l),
(230,630,l),
(70,630,l)
);
},
{
closed = 1;
nodes = (
(70,339,l),
(230,339,l),
(230,389,l),
(70,389,l)
);
},
{
closed = 1;
nodes = (
(280,0,l),
(340,0,l),
(340,630,l),
(280,630,l)
);
},
{
closed = 1;
nodes = (
(280,580,l),
(440,580,l),
(440,630,l),
(280,630,l)
);
},
{
closed = 1;
nodes = (
(280,339,l),
(440,339,l),
(440,389,l),
(280,389,l)
);
}
);
width = 475;
},
{
layerId = m003;
shapes = (
{
ref = f;
},
{
pos = (365,0);
ref = f;
}
);
width = 730;
}
);
metricLeft = f;
metricRight = f;
},
{
glyphname = f_f_l;
lastChange = "2025-02-18 14:34:52 +0000";
layers = (
{
layerId = m002;
shapes = (
{
ref = f_f;
},
{
pos = (530,0);
ref = l;
}
);
width = 730;
},
{
anchors = (
{
name = bottom_1;
pos = (575,0);
},
{
name = center_1;
pos = (575,200);
},
{
name = top_1;
pos = (575,700);
},
{
name = topright_1;
pos = (655,800);
}
);
layerId = m01;
shapes = (
{
closed = 1;
nodes = (
(70,0,l),
(130,0,l),
(130,630,l),
(70,630,l)
);
},
{
closed = 1;
nodes = (
(70,580,l),
(230,580,l),
(230,630,l),
(70,630,l)
);
},
{
closed = 1;
nodes = (
(70,339,l),
(230,339,l),
(230,389,l),
(70,389,l)
);
},
{
closed = 1;
nodes = (
(280,0,l),
(340,0,l),
(340,630,l),
(280,630,l)
);
},
{
closed = 1;
nodes = (
(280,580,l),
(440,580,l),
(440,630,l),
(280,630,l)
);
},
{
closed = 1;
nodes = (
(280,339,l),
(440,339,l),
(440,389,l),
(280,389,l)
);
},
{
closed = 1;
nodes = (
(490,0,l),
(550,0,l),
(550,630,l),
(490,630,l)
);
}
);
width = 620;
},
{
layerId = m003;
shapes = (
{
ref = f_f;
},
{
pos = (730,0);
ref = l;
}
);
width = 1030;
}
);
metricLeft = f;
metricRight = l;
},
{
glyphname = zero;
lastChange = "2025-02-18 14:15:34 +0000";
layers = (
{
layerId = m01;
shapes = (
{
closed = 1;
nodes = (
(290,0,l),
(450,0,l),
(450,630,l),
(290,630,l)
);
},
{
closed = 1;
nodes = (
(70,0,l),
(230,0,l),
(230,630,l),
(70,630,l)
);
},
{
closed = 1;
nodes = (
(347,630,l),
(167,630,l),
(167,580,l),
(347,580,l)
);
},
{
closed = 1;
nodes = (
(347,50,l),
(167,50,l),
(167,0,l),
(347,0,l)
);
}
);
width = 520;
},
{
layerId = m002;
shapes = (
{
closed = 1;
nodes = (
(190,0,l),
(250,0,l),
(250,700,l),
(190,700,l)
);
},
{
closed = 1;
nodes = (
(70,0,l),
(130,0,l),
(130,700,l),
(70,700,l)
);
},
{
closed = 1;
nodes = (
(250,700,l),
(70,700,l),
(70,640,l),
(250,640,l)
);
},
{
closed = 1;
nodes = (
(250,60,l),
(70,60,l),
(70,0,l),
(250,0,l)
);
}
);
width = 320;
},
{
layerId = m003;
shapes = (
{
closed = 1;
nodes = (
(290,0,l),
(450,0,l),
(450,700,l),
(290,700,l)
);
},
{
closed = 1;
nodes = (
(70,0,l),
(230,0,l),
(230,700,l),
(70,700,l)
);
},
{
closed = 1;
nodes = (
(347,700,l),
(167,700,l),
(167,640,l),
(347,640,l)
);
},
{
closed = 1;
nodes = (
(347,60,l),
(167,60,l),
(167,0,l),
(347,0,l)
);
}
);
width = 520;
}
);
metricLeft = H;
metricRight = H;
unicode = 48;
},
{
glyphname = one;
lastChange = "2025-02-18 14:15:43 +0000";
layers = (
{
layerId = m01;
shapes = (
{
closed = 1;
nodes = (
(295,1,l),
(295,630,l),
(135,630,l),
(135,1,l)
);
},
{
closed = 1;
nodes = (
(135,580,l),
(135,630,l),
(35,630,l),
(35,580,l)
);
}
);
width = 365;
},
{
layerId = m002;
shapes = (
{
closed = 1;
nodes = (
(195,1,l),
(195,700,l),
(135,700,l),
(135,1,l)
);
},
{
closed = 1;
nodes = (
(135,640,l),
(135,700,l),
(35,700,l),
(35,640,l)
);
}
);
width = 265;
},
{
layerId = m003;
shapes = (
{
closed = 1;
nodes = (
(295,1,l),
(295,700,l),
(135,700,l),
(135,1,l)
);
},
{
closed = 1;
nodes = (
(135,640,l),
(135,700,l),
(35,700,l),
(35,640,l)
);
}
);
width = 365;
}
);
metricLeft = "=H/2";
metricRight = H;
unicode = 49;
},
{
glyphname = two;
lastChange = "2025-02-18 14:16:44 +0000";
layers = (
{
layerId = m01;
shapes = (
{
closed = 1;
nodes = (
(315,0,l),
(315,630,l),
(155,630,l),
(155,0,l)
);
},
{
closed = 1;
nodes = (
(465,0,l),
(465,60,l),
(315,60,l),
(315,0,l)
);
},
{
closed = 1;
nodes = (
(95,480,l),
(95,580,l),
(35,580,l),
(35,480,l)
);
},
{
closed = 1;
nodes = (
(155,580,l),
(155,630,l),
(35,630,l),
(35,580,l)
);
}
);
width = 500;
},
{
layerId = m002;
shapes = (
{
closed = 1;
nodes = (
(215,0,l),
(215,700,l),
(155,700,l),
(155,0,l)
);
},
{
closed = 1;
nodes = (
(365,0,l),
(365,60,l),
(215,60,l),
(215,0,l)
);
},
{
closed = 1;
nodes = (
(95,540,l),
(95,640,l),
(35,640,l),
(35,540,l)
);
},
{
closed = 1;
nodes = (
(155,640,l),
(155,700,l),
(35,700,l),
(35,640,l)
);
}
);
width = 400;
},
{
layerId = m003;
shapes = (
{
closed = 1;
nodes = (
(415,0,l),
(415,700,l),
(255,700,l),
(255,0,l)
);
},
{
closed = 1;
nodes = (
(565,0,l),
(565,60,l),
(415,60,l),
(415,0,l)
);
},
{
closed = 1;
nodes = (
(195,540,l),
(195,640,l),
(35,640,l),
(35,540,l)
);
},
{
closed = 1;
nodes = (
(255,640,l),
(255,700,l),
(36,700,l),
(36,640,l)
);
}
);
width = 600;
}
);
metricLeft = "=H/2";
metricRight = "=H/2";
unicode = 50;
},
{
glyphname = three;
lastChange = "2025-02-18 14:17:12 +0000";
layers = (
{
layerId = m01;
shapes = (
{
closed = 1;
nodes = (
(315,0,l),
(315,629,l),
(155,630,l),
(155,340,l),
(89,340,l),
(89,290,l),
(155,290,l),
(155,0,l)
);
},
{
closed = 1;
nodes = (
(185,0,l),
(185,50,l),
(35,50,l),
(35,0,l)
);
},
{
closed = 1;
nodes = (
(95,50,l),
(95,150,l),
(35,150,l),
(35,50,l)
);
},
{
closed = 1;
nodes = (
(95,480,l),
(95,580,l),
(35,580,l),
(35,480,l)
);
},
{
closed = 1;
nodes = (
(185,580,l),
(185,630,l),
(35,630,l),
(35,580,l)
);
}
);
width = 385;
},
{
layerId = m002;
shapes = (
{
closed = 1;
nodes = (
(215,0,l),
(215,699,l),
(155,700,l),
(155,380,l),
(89,380,l),
(89,320,l),
(155,320,l),
(155,0,l)
);
},
{
closed = 1;
nodes = (
(185,0,l),
(185,60,l),
(35,60,l),
(35,0,l)
);
},
{
closed = 1;
nodes = (
(95,60,l),
(95,160,l),
(35,160,l),
(35,60,l)
);
},
{
closed = 1;
nodes = (
(95,540,l),
(95,640,l),
(35,640,l),
(35,540,l)
);
},
{
closed = 1;
nodes = (
(185,640,l),
(185,700,l),
(35,700,l),
(35,640,l)
);
}
);
width = 285;
},
{
layerId = m003;
shapes = (
{
closed = 1;
nodes = (
(415,0,l),
(415,699,l),
(255,700,l),
(255,380,l),
(189,380,l),
(189,320,l),
(255,320,l),
(255,0,l)
);
},
{
closed = 1;
nodes = (
(285,0,l),
(285,60,l),
(35,60,l),
(35,0,l)
);
},
{
closed = 1;
nodes = (
(195,60,l),
(195,160,l),
(35,160,l),
(35,60,l)
);
},
{
closed = 1;
nodes = (
(195,540,l),
(195,640,l),
(35,640,l),
(35,540,l)
);
},
{
closed = 1;
nodes = (
(285,640,l),
(285,700,l),
(35,700,l),
(35,640,l)
);
}
);
width = 485;
}
);
metricLeft = "=H/2";
metricRight = H;
unicode = 51;
},
{
glyphname = four;
lastChange = "2025-02-18 14:17:35 +0000";
layers = (
{
layerId = m01;
shapes = (
{
closed = 1;
nodes = (
(315,0,l),
(315,630,l),
(155,630,l),
(155,0,l)
);
},
{
closed = 1;
nodes = (
(375,290,l),
(375,340,l),
(95,340,l),
(95,290,l)
);
},
{
closed = 1;
nodes = (
(95,290,l),
(95,630,l),
(35,630,l),
(35,290,l)
);
}
);
width = 398;
},
{
layerId = m002;
shapes = (
{
closed = 1;
nodes = (
(215,0,l),
(215,700,l),
(155,700,l),
(155,0,l)
);
},
{
closed = 1;
nodes = (
(275,320,l),
(275,380,l),
(95,380,l),
(95,320,l)
);
},
{
closed = 1;
nodes = (
(95,320,l),
(95,700,l),
(35,700,l),
(35,320,l)
);
}
);
width = 298;
},
{
layerId = m003;
shapes = (
{
closed = 1;
nodes = (
(415,0,l),
(415,700,l),
(255,700,l),
(255,0,l)
);
},
{
closed = 1;
nodes = (
(475,320,l),
(475,380,l),
(195,380,l),
(195,320,l)
);
},
{
closed = 1;
nodes = (
(195,320,l),
(195,700,l),
(35,700,l),
(35,320,l)
);
}
);
width = 498;
}
);
metricLeft = "=H/2";
metricRight = "=H/3";
unicode = 52;
},
{
glyphname = five;
lastChange = "2025-06-19 10:27:23 +0000";
layers = (
{
layerId = m01;
shapes = (
{
closed = 1;
nodes = (
(315,0,l),
(315,630,l),
(155,630,l),
(155,0,l)
);
},
{
closed = 1;
nodes = (
(185,0,l),
(185,50,l),
(35,50,l),
(35,0,l)
);
},
{
closed = 1;
nodes = (
(95,50,l),
(95,340,l),
(35,340,l),
(35,50,l)
);
},
{
closed = 1;
nodes = (
(435,580,l),
(435,630,l),
(285,630,l),
(285,580,l)
);
}
);
width = 470;
},
{
layerId = m002;
shapes = (
{
closed = 1;
nodes = (
(215,0,l),
(215,700,l),
(155,700,l),
(155,0,l)
);
},
{
closed = 1;
nodes = (
(185,0,l),
(185,60,l),
(35,60,l),
(35,0,l)
);
},
{
closed = 1;
nodes = (
(95,60,l),
(95,400,l),
(35,400,l),
(35,60,l)
);
},
{
closed = 1;
nodes = (
(335,700,l),
(185,700,l),
(185,640,l),
(335,640,l)
);
}
);
width = 370;
},
{
layerId = m003;
shapes = (
{
closed = 1;
nodes = (
(415,0,l),
(415,700,l),
(255,700,l),
(255,0,l)
);
},
{
closed = 1;
nodes = (
(285,0,l),
(285,60,l),
(35,60,l),
(35,0,l)
);
},
{
closed = 1;
nodes = (
(195,60,l),
(195,380,l),
(35,380,l),
(35,60,l)
);
},
{
closed = 1;
nodes = (
(635,700,l),
(385,700,l),
(385,640,l),
(635,640,l)
);
}
);
width = 670;
}
);
metricLeft = "=H/2";
metricRight = "=H/2";
unicode = 53;
},
{
glyphname = six;
lastChange = "2025-06-10 09:13:37 +0000";
layers = (
{
guides = (
{
pos = (70,630);
}
);
layerId = m01;
shapes = (
{
closed = 1;
nodes = (
(70,0,l),
(230,0,l),
(230,630,l),
(70,630,l)
);
},
{
closed = 1;
nodes = (
(350,0,l),
(350,340,l),
(290,340,l),
(290,0,l)
);
},
{
closed = 1;
nodes = (
(314,340,l),
(139,340,l),
(139,290,l),
(314,290,l)
);
},
{
closed = 1;
nodes = (
(314,60,l),
(139,60,l),
(139,0,l),
(314,0,l)
);
},
{
closed = 1;
nodes = (
(350,580,l),
(290,580,l),
(290,480,l),
(350,480,l)
);
},
{
closed = 1;
nodes = (
(350,630,l),
(200,630,l),
(200,580,l),
(350,580,l)
);
}
);
width = 385;
},
{
layerId = m002;
shapes = (
{
closed = 1;
nodes = (
(70,0,l),
(130,0,l),
(130,700,l),
(70,700,l)
);
},
{
closed = 1;
nodes = (
(250,0,l),
(250,380,l),
(190,380,l),
(190,0,l)
);
},
{
closed = 1;
nodes = (
(214,380,l),
(70,380,l),
(70,320,l),
(214,320,l)
);
},
{
closed = 1;
nodes = (
(214,60,l),
(70,60,l),
(70,0,l),
(214,0,l)
);
},
{
closed = 1;
nodes = (
(250,640,l),
(190,640,l),
(190,540,l),
(250,540,l)
);
},
{
closed = 1;
nodes = (
(250,700,l),
(70,700,l),
(70,640,l),
(250,640,l)
);
}
);
width = 285;
},
{
layerId = m003;
shapes = (
{
closed = 1;
nodes = (
(70,0,l),
(230,0,l),
(230,700,l),
(70,700,l)
);
},
{
closed = 1;
nodes = (
(450,0,l),
(450,380,l),
(290,380,l),
(290,0,l)
);
},
{
closed = 1;
nodes = (
(314,380,l),
(139,380,l),
(139,320,l),
(314,320,l)
);
},
{
closed = 1;
nodes = (
(314,60,l),
(139,60,l),
(139,0,l),
(314,0,l)
);
},
{
closed = 1;
nodes = (
(450,640,l),
(290,640,l),
(290,540,l),
(450,540,l)
);
},
{
closed = 1;
nodes = (
(450,700,l),
(200,700,l),
(200,640,l),
(450,640,l)
);
}
);
width = 485;
}
);
metricLeft = H;
metricRight = "=H/2";
unicode = 54;
},
{
glyphname = seven;
lastChange = "2025-06-10 09:14:55 +0000";
layers = (
{
layerId = m01;
shapes = (
{
closed = 1;
nodes = (
(315,0,l),
(315,630,l),
(155,630,l),
(155,0,l)
);
},
{
closed = 1;
nodes = (
(375,290,l),
(375,340,l),
(95,340,l),
(95,290,l)
);
},
{
closed = 1;
nodes = (
(95,480,l),
(95,580,l),
(35,580,l),
(35,480,l)
);
},
{
closed = 1;
nodes = (
(185,580,l),
(185,630,l),
(35,630,l),
(35,580,l)
);
}
);
width = 410;
},
{
layerId = m002;
shapes = (
{
closed = 1;
nodes = (
(215,0,l),
(215,700,l),
(155,700,l),
(155,0,l)
);
},
{
closed = 1;
nodes = (
(275,320,l),
(275,380,l),
(95,380,l),
(95,320,l)
);
},
{
closed = 1;
nodes = (
(95,540,l),
(95,640,l),
(35,640,l),
(35,540,l)
);
},
{
closed = 1;
nodes = (
(185,640,l),
(185,700,l),
(35,700,l),
(35,640,l)
);
}
);
width = 310;
},
{
layerId = m003;
shapes = (
{
closed = 1;
nodes = (
(415,0,l),
(415,700,l),
(255,700,l),
(255,0,l)
);
},
{
closed = 1;
nodes = (
(475,320,l),
(475,380,l),
(195,380,l),
(195,320,l)
);
},
{
closed = 1;
nodes = (
(195,540,l),
(195,640,l),
(35,640,l),
(35,540,l)
);
},
{
closed = 1;
nodes = (
(285,640,l),
(285,700,l),
(35,700,l),
(35,640,l)
);
}
);
width = 510;
}
);
metricLeft = "=H/2";
metricRight = "=H/2";
unicode = 55;
},
{
glyphname = eight;
lastChange = "2025-02-18 14:19:11 +0000";
layers = (
{
layerId = m01;
shapes = (
{
closed = 1;
nodes = (
(71,630,l),
(71,0,l)
);
},
{
closed = 1;
nodes = (
(291,0,l),
(451,0,l),
(451,630,l),
(291,630,l)
);
},
{
closed = 1;
nodes = (
(70,0,l),
(231,0,l),
(231,630,l),
(70,630,l)
);
},
{
closed = 1;
nodes = (
(355,630,l),
(175,630,l),
(175,580,l),
(355,580,l)
);
},
{
closed = 1;
nodes = (
(355,50,l),
(175,50,l),
(175,0,l),
(355,0,l)
);
},
{
closed = 1;
nodes = (
(355,340,l),
(175,340,l),
(175,291,l),
(355,291,l)
);
}
);
width = 521;
},
{
layerId = m002;
shapes = (
{
closed = 1;
nodes = (
(190,0,l),
(250,0,l),
(250,700,l),
(190,700,l)
);
},
{
closed = 1;
nodes = (
(70,0,l),
(130,0,l),
(130,700,l),
(70,700,l)
);
},
{
closed = 1;
nodes = (
(250,700,l),
(70,700,l),
(70,640,l),
(250,640,l)
);
},
{
closed = 1;
nodes = (
(250,60,l),
(70,60,l),
(70,0,l),
(250,0,l)
);
},
{
closed = 1;
nodes = (
(250,380,l),
(70,380,l),
(70,321,l),
(250,321,l)
);
}
);
width = 320;
},
{
layerId = m003;
shapes = (
{
closed = 1;
nodes = (
(71,700,l),
(71,0,l)
);
},
{
closed = 1;
nodes = (
(291,0,l),
(451,0,l),
(451,700,l),
(291,700,l)
);
},
{
closed = 1;
nodes = (
(70,0,l),
(231,0,l),
(231,700,l),
(70,700,l)
);
},
{
closed = 1;
nodes = (
(355,700,l),
(175,700,l),
(175,640,l),
(355,640,l)
);
},
{
closed = 1;
nodes = (
(355,60,l),
(175,60,l),
(175,0,l),
(355,0,l)
);
},
{
closed = 1;
nodes = (
(355,380,l),
(175,380,l),
(175,321,l),
(355,321,l)
);
}
);
width = 521;
}
);
metricLeft = H;
metricRight = H;
unicode = 56;
},
{
glyphname = nine;
lastChange = "2025-06-10 09:17:06 +0000";
layers = (
{
layerId = m01;
shapes = (
{
closed = 1;
nodes = (
(345,0,l),
(345,630,l),
(35,630,l),
(35,290,l),
(185,290,l),
(185,0,l)
);
},
{
closed = 1;
nodes = (
(195,0,l),
(195,50,l),
(35,50,l),
(35,0,l)
);
},
{
closed = 1;
nodes = (
(95,40,l),
(95,150,l),
(35,150,l),
(35,40,l)
);
},
{
closed = 1;
nodes = (
(95,580,l),
(185,580,l),
(185,340,l),
(95,340,l)
);
}
);
width = 415;
},
{
layerId = m002;
shapes = (
{
closed = 1;
nodes = (
(245,0,l),
(245,700,l),
(35,700,l),
(35,319,l),
(185,319,l),
(185,0,l)
);
},
{
closed = 1;
nodes = (
(195,0,l),
(195,60,l),
(35,60,l),
(35,0,l)
);
},
{
closed = 1;
nodes = (
(95,50,l),
(95,160,l),
(35,160,l),
(35,50,l)
);
},
{
closed = 1;
nodes = (
(95,638,l),
(185,638,l),
(185,380,l),
(95,380,l)
);
}
);
width = 315;
},
{
layerId = m003;
shapes = (
{
closed = 1;
nodes = (
(445,0,l),
(445,700,l),
(35,700,l),
(35,319,l),
(285,319,l),
(285,0,l)
);
},
{
closed = 1;
nodes = (
(295,0,l),
(295,60,l),
(35,60,l),
(35,0,l)
);
},
{
closed = 1;
nodes = (
(195,50,l),
(195,160,l),
(35,160,l),
(35,50,l)
);
},
{
closed = 1;
nodes = (
(195,638,l),
(285,638,l),
(285,380,l),
(195,380,l)
);
}
);
width = 515;
}
);
metricLeft = "=H/2";
metricRight = H;
unicode = 57;
},
{
glyphname = one.ss01;
lastChange = "2025-02-25 10:04:55 +0000";
layers = (
{
layerId = m01;
shapes = (
{
closed = 1;
nodes = (
(344,1,l),
(344,630,l),
(184,630,l),
(184,1,l)
);
},
{
closed = 1;
nodes = (
(35,470,l),
(102,470,l),
(184,630,l),
(117,630,l)
);
}
);
width = 414;
},
{
layerId = m002;
shapes = (
{
closed = 1;
nodes = (
(195,1,l),
(195,700,l),
(135,700,l),
(135,1,l)
);
},
{
closed = 1;
nodes = (
(135,640,l),
(135,700,l),
(35,700,l),
(35,640,l)
);
}
);
width = 265;
},
{
layerId = m003;
shapes = (
{
closed = 1;
nodes = (
(295,1,l),
(295,700,l),
(135,700,l),
(135,1,l)
);
},
{
closed = 1;
nodes = (
(135,640,l),
(135,700,l),
(35,700,l),
(35,640,l)
);
}
);
width = 365;
}
);
metricLeft = "=H/2";
metricRight = H;
},
{
glyphname = period;
lastChange = "2024-11-27 21:21:06 +0000";
layers = (
{
layerId = m01;
shapes = (
{
closed = 1;
nodes = (
(111,0,l),
(111,76,l),
(35,76,l),
(35,0,l)
);
}
);
width = 146;
},
{
layerId = m002;
shapes = (
{
closed = 1;
nodes = (
(111,0,l),
(111,76,l),
(35,76,l),
(35,0,l)
);
}
);
width = 146;
},
{
layerId = m003;
shapes = (
{
closed = 1;
nodes = (
(111,0,l),
(111,76,l),
(35,76,l),
(35,0,l)
);
}
);
width = 146;
}
);
metricLeft = "=H/2";
metricRight = "=H/2";
unicode = 46;
},
{
glyphname = comma;
lastChange = "2024-11-27 21:21:06 +0000";
layers = (
{
layerId = m01;
shapes = (
{
closed = 1;
nodes = (
(92,-143,l),
(92,114,l),
(35,114,l),
(35,-143,l)
);
}
);
width = 127;
},
{
layerId = m002;
shapes = (
{
closed = 1;
nodes = (
(92,-143,l),
(92,114,l),
(35,114,l),
(35,-143,l)
);
}
);
width = 127;
},
{
layerId = m003;
shapes = (
{
closed = 1;
nodes = (
(92,-143,l),
(92,114,l),
(35,114,l),
(35,-143,l)
);
}
);
width = 127;
}
);
metricLeft = "=H/2";
metricRight = "=H/2";
unicode = 44;
},
{
glyphname = exclam;
lastChange = "2024-11-27 21:21:06 +0000";
layers = (
{
layerId = m01;
shapes = (
{
closed = 1;
nodes = (
(82,677,l),
(82,162,l),
(158,162,l),
(158,677,l)
);
},
{
pos = (47,0);
ref = period;
}
);
width = 240;
},
{
layerId = m002;
shapes = (
{
closed = 1;
nodes = (
(82,677,l),
(82,162,l),
(158,162,l),
(158,677,l)
);
},
{
pos = (47,0);
ref = period;
}
);
width = 240;
},
{
layerId = m003;
shapes = (
{
closed = 1;
nodes = (
(82,677,l),
(82,162,l),
(158,162,l),
(158,677,l)
);
},
{
pos = (47,0);
ref = period;
}
);
width = 240;
}
);
unicode = 33;
},
{
glyphname = question;
lastChange = "2024-11-27 21:21:06 +0000";
layers = (
{
layerId = m01;
shapes = (
{
closed = 1;
nodes = (
(286,150,l),
(218,150,l),
(218,639,l),
(96,639,l),
(96,487,l),
(35,487,l),
(35,700,l),
(286,700,l)
);
},
{
pos = (180,0);
ref = period;
}
);
width = 460;
},
{
layerId = m002;
shapes = (
{
closed = 1;
nodes = (
(286,150,l),
(218,150,l),
(218,639,l),
(96,639,l),
(96,487,l),
(35,487,l),
(35,700,l),
(286,700,l)
);
},
{
pos = (180,0);
ref = period;
}
);
width = 460;
},
{
layerId = m003;
shapes = (
{
closed = 1;
nodes = (
(286,150,l),
(218,150,l),
(218,639,l),
(96,639,l),
(96,487,l),
(35,487,l),
(35,700,l),
(286,700,l)
);
},
{
pos = (180,0);
ref = period;
}
);
width = 460;
}
);
unicode = 63;
},
{
glyphname = bullet;
lastChange = "2024-11-27 21:21:06 +0000";
layers = (
{
layerId = m01;
shapes = (
{
closed = 1;
nodes = (
(364,178,l),
(364,307,l),
(235,307,l),
(235,178,l)
);
}
);
width = 600;
},
{
layerId = m002;
shapes = (
{
closed = 1;
nodes = (
(364,178,l),
(364,307,l),
(235,307,l),
(235,178,l)
);
}
);
width = 600;
},
{
layerId = m003;
shapes = (
{
closed = 1;
nodes = (
(364,178,l),
(364,307,l),
(235,307,l),
(235,178,l)
);
}
);
width = 600;
}
);
unicode = 8226;
},
{
glyphname = asterisk;
lastChange = "2024-11-27 21:21:06 +0000";
layers = (
{
layerId = m01;
shapes = (
{
closed = 1;
nodes = (
(205,470,l),
(154,470,l),
(154,698,l),
(205,698,l)
);
},
{
closed = 1;
nodes = (
(65,620,l),
(90,662,l),
(295,548,l),
(270,506,l)
);
},
{
closed = 1;
nodes = (
(90,506,l),
(65,548,l),
(270,662,l),
(295,620,l)
);
}
);
width = 360;
},
{
layerId = m002;
shapes = (
{
closed = 1;
nodes = (
(205,470,l),
(154,470,l),
(154,698,l),
(205,698,l)
);
},
{
closed = 1;
nodes = (
(65,620,l),
(90,662,l),
(295,548,l),
(270,506,l)
);
},
{
closed = 1;
nodes = (
(90,506,l),
(65,548,l),
(270,662,l),
(295,620,l)
);
}
);
width = 360;
},
{
layerId = m003;
shapes = (
{
closed = 1;
nodes = (
(205,470,l),
(154,470,l),
(154,698,l),
(205,698,l)
);
},
{
closed = 1;
nodes = (
(65,620,l),
(90,662,l),
(295,548,l),
(270,506,l)
);
},
{
closed = 1;
nodes = (
(90,506,l),
(65,548,l),
(270,662,l),
(295,620,l)
);
}
);
width = 360;
}
);
unicode = 42;
},
{
glyphname = numbersign;
lastChange = "2024-11-27 21:21:06 +0000";
layers = (
{
layerId = m01;
shapes = (
{
closed = 1;
nodes = (
(228,400,l),
(157,400,l),
(157,0,l),
(228,0,l)
);
},
{
closed = 1;
nodes = (
(61,259,l),
(506,259,l),
(506,316,l),
(61,316,l)
);
},
{
closed = 1;
nodes = (
(418,400,l),
(347,400,l),
(347,0,l),
(418,0,l)
);
},
{
closed = 1;
nodes = (
(61,84,l),
(506,84,l),
(506,141,l),
(61,141,l)
);
}
);
width = 600;
},
{
layerId = m002;
shapes = (
{
closed = 1;
nodes = (
(228,400,l),
(157,400,l),
(157,0,l),
(228,0,l)
);
},
{
closed = 1;
nodes = (
(61,259,l),
(506,259,l),
(506,316,l),
(61,316,l)
);
},
{
closed = 1;
nodes = (
(418,400,l),
(347,400,l),
(347,0,l),
(418,0,l)
);
},
{
closed = 1;
nodes = (
(61,84,l),
(506,84,l),
(506,141,l),
(61,141,l)
);
}
);
width = 600;
},
{
layerId = m003;
shapes = (
{
closed = 1;
nodes = (
(228,400,l),
(157,400,l),
(157,0,l),
(228,0,l)
);
},
{
closed = 1;
nodes = (
(61,259,l),
(506,259,l),
(506,316,l),
(61,316,l)
);
},
{
closed = 1;
nodes = (
(418,400,l),
(347,400,l),
(347,0,l),
(418,0,l)
);
},
{
closed = 1;
nodes = (
(61,84,l),
(506,84,l),
(506,141,l),
(61,141,l)
);
}
);
width = 600;
}
);
unicode = 35;
},
{
glyphname = slash;
lastChange = "2024-11-27 21:21:06 +0000";
layers = (
{
layerId = m01;
shapes = (
{
closed = 1;
nodes = (
(338,700,l),
(281,700,l),
(70,0,l),
(127,0,l)
);
}
);
width = 373;
},
{
layerId = m002;
shapes = (
{
closed = 1;
nodes = (
(338,700,l),
(281,700,l),
(70,0,l),
(127,0,l)
);
}
);
width = 373;
},
{
layerId = m003;
shapes = (
{
closed = 1;
nodes = (
(338,700,l),
(281,700,l),
(70,0,l),
(127,0,l)
);
}
);
width = 373;
}
);
metricLeft = H;
metricRight = "=H/2";
unicode = 47;
},
{
glyphname = backslash;
lastChange = "2024-11-27 21:21:06 +0000";
layers = (
{
layerId = m01;
shapes = (
{
closed = 1;
nodes = (
(432,0,l),
(221,700,l),
(164,700,l),
(375,0,l)
);
}
);
width = 600;
},
{
layerId = m002;
shapes = (
{
closed = 1;
nodes = (
(432,0,l),
(221,700,l),
(164,700,l),
(375,0,l)
);
}
);
width = 600;
},
{
layerId = m003;
shapes = (
{
closed = 1;
nodes = (
(432,0,l),
(221,700,l),
(164,700,l),
(375,0,l)
);
}
);
width = 600;
}
);
unicode = 92;
},
{
glyphname = hyphen;
lastChange = "2024-11-27 21:21:06 +0000";
layers = (
{
layerId = m01;
shapes = (
{
closed = 1;
nodes = (
(382,299,l),
(35,299,l),
(35,242,l),
(382,242,l)
);
}
);
width = 417;
},
{
layerId = m002;
shapes = (
{
closed = 1;
nodes = (
(382,299,l),
(35,299,l),
(35,242,l),
(382,242,l)
);
}
);
width = 417;
},
{
layerId = m003;
shapes = (
{
closed = 1;
nodes = (
(382,299,l),
(35,299,l),
(35,242,l),
(382,242,l)
);
}
);
width = 417;
}
);
metricLeft = "=H/2";
metricRight = "=H/2";
unicode = 45;
},
{
glyphname = endash;
lastChange = "2024-11-27 21:21:06 +0000";
layers = (
{
layerId = m01;
shapes = (
{
closed = 1;
nodes = (
(517,298,l),
(60,298,l),
(60,241,l),
(517,241,l)
);
}
);
width = 600;
},
{
layerId = m002;
shapes = (
{
closed = 1;
nodes = (
(517,298,l),
(60,298,l),
(60,241,l),
(517,241,l)
);
}
);
width = 600;
},
{
layerId = m003;
shapes = (
{
closed = 1;
nodes = (
(517,298,l),
(60,298,l),
(60,241,l),
(517,241,l)
);
}
);
width = 600;
}
);
unicode = 8211;
},
{
glyphname = at;
lastChange = "2024-11-28 10:25:27 +0000";
layers = (
{
layerId = m01;
shapes = (
{
closed = 1;
nodes = (
(570,463,l),
(70,463,l),
(70,523,l),
(630,523,l),
(630,-120,l),
(70,-120,l),
(70,403,l),
(510,403,l),
(510,0,l),
(190,0,l),
(190,229,l),
(350,229,l),
(350,343,l),
(130,343,l),
(130,-60,l),
(570,-60,l)
);
},
{
closed = 1;
nodes = (
(250,60,l),
(350,60,l),
(350,169,l),
(250,169,l)
);
}
);
width = 700;
},
{
layerId = m002;
shapes = (
{
closed = 1;
nodes = (
(530,-119,l),
(530,523,l),
(70,523,l),
(70,463,l),
(470,463,l),
(470,-60,l),
(130,-60,l),
(130,343,l),
(350,343,l),
(350,229,l),
(190,229,l),
(190,0,l),
(410,0,l),
(410,403,l),
(70,403,l),
(70,-119,l)
);
},
{
closed = 1;
nodes = (
(250,169,l),
(350,169,l),
(350,60,l),
(250,60,l)
);
}
);
width = 600;
},
{
layerId = m003;
shapes = (
{
closed = 1;
nodes = (
(570,463,l),
(70,463,l),
(70,523,l),
(630,523,l),
(630,-120,l),
(70,-120,l),
(70,403,l),
(510,403,l),
(510,0,l),
(190,0,l),
(190,229,l),
(350,229,l),
(350,343,l),
(130,343,l),
(130,-60,l),
(570,-60,l)
);
},
{
closed = 1;
nodes = (
(250,60,l),
(350,60,l),
(350,169,l),
(250,169,l)
);
}
);
width = 700;
}
);
metricLeft = H;
metricRight = H;
unicode = 64;
},
{
glyphname = ampersand;
lastChange = "2024-11-27 21:21:06 +0000";
layers = (
{
layerId = m01;
shapes = (
{
closed = 1;
nodes = (
(530,0,l),
(530,461,l),
(410,461,l),
(410,700,l),
(70,700,l),
(70,0,l)
);
},
{
closed = 1;
nodes = (
(130,401,l),
(410,401,l),
(410,60,l),
(130,60,l)
);
},
{
closed = 1;
nodes = (
(130,640,l),
(290,640,l),
(290,461,l),
(130,461,l)
);
},
{
closed = 1;
nodes = (
(410,-97,l),
(530,-97,l),
(530,33,l),
(410,33,l)
);
}
);
width = 600;
},
{
layerId = m002;
shapes = (
{
closed = 1;
nodes = (
(350,0,l),
(350,461,l),
(290,461,l),
(290,700,l),
(70,700,l),
(70,0,l)
);
},
{
closed = 1;
nodes = (
(130,401,l),
(290,401,l),
(290,60,l),
(130,60,l)
);
},
{
closed = 1;
nodes = (
(130,640,l),
(230,640,l),
(230,461,l),
(130,461,l)
);
},
{
closed = 1;
nodes = (
(290,-97,l),
(350,-97,l),
(350,33,l),
(290,33,l)
);
}
);
width = 420;
},
{
layerId = m003;
shapes = (
{
closed = 1;
nodes = (
(530,0,l),
(530,461,l),
(410,461,l),
(410,700,l),
(70,700,l),
(70,0,l)
);
},
{
closed = 1;
nodes = (
(130,401,l),
(410,401,l),
(410,60,l),
(130,60,l)
);
},
{
closed = 1;
nodes = (
(130,640,l),
(290,640,l),
(290,461,l),
(130,461,l)
);
},
{
closed = 1;
nodes = (
(410,-97,l),
(530,-97,l),
(530,33,l),
(410,33,l)
);
}
);
width = 600;
}
);
metricLeft = H;
metricRight = H;
unicode = 38;
},
{
glyphname = degree;
lastChange = "2024-11-27 21:21:06 +0000";
layers = (
{
layerId = m01;
shapes = (
{
closed = 1;
nodes = (
(278,469,l),
(278,698,l),
(50,698,l),
(50,469,l)
);
},
{
closed = 1;
nodes = (
(107,641,l),
(221,641,l),
(221,526,l),
(107,526,l)
);
}
);
width = 320;
},
{
layerId = m002;
shapes = (
{
closed = 1;
nodes = (
(278,469,l),
(278,698,l),
(50,698,l),
(50,469,l)
);
},
{
closed = 1;
nodes = (
(107,641,l),
(221,641,l),
(221,526,l),
(107,526,l)
);
}
);
width = 320;
},
{
layerId = m003;
shapes = (
{
closed = 1;
nodes = (
(278,469,l),
(278,698,l),
(50,698,l),
(50,469,l)
);
},
{
closed = 1;
nodes = (
(107,641,l),
(221,641,l),
(221,526,l),
(107,526,l)
);
}
);
width = 320;
}
);
unicode = 176;
},
{
glyphname = bar;
lastChange = "2024-11-27 21:21:06 +0000";
layers = (
{
layerId = m01;
shapes = (
{
closed = 1;
nodes = (
(229,-143,l),
(229,800,l),
(172,800,l),
(172,-143,l)
);
}
);
width = 400;
},
{
layerId = m002;
shapes = (
{
closed = 1;
nodes = (
(229,-143,l),
(229,800,l),
(172,800,l),
(172,-143,l)
);
}
);
width = 400;
},
{
layerId = m003;
shapes = (
{
closed = 1;
nodes = (
(229,-143,l),
(229,800,l),
(172,800,l),
(172,-143,l)
);
}
);
width = 400;
}
);
unicode = 124;
},
{
glyphname = plus;
lastChange = "2024-11-27 21:21:06 +0000";
layers = (
{
layerId = m01;
shapes = (
{
closed = 1;
nodes = (
(417,296,l),
(70,296,l),
(70,239,l),
(417,239,l)
);
},
{
closed = 1;
nodes = (
(215,441,l),
(215,94,l),
(272,94,l),
(272,441,l)
);
}
);
width = 487;
},
{
layerId = m002;
shapes = (
{
closed = 1;
nodes = (
(417,296,l),
(70,296,l),
(70,239,l),
(417,239,l)
);
},
{
closed = 1;
nodes = (
(215,441,l),
(215,94,l),
(272,94,l),
(272,441,l)
);
}
);
width = 487;
},
{
layerId = m003;
shapes = (
{
closed = 1;
nodes = (
(417,296,l),
(70,296,l),
(70,239,l),
(417,239,l)
);
},
{
closed = 1;
nodes = (
(215,441,l),
(215,94,l),
(272,94,l),
(272,441,l)
);
}
);
width = 487;
}
);
metricLeft = H;
metricRight = H;
unicode = 43;
},
{
glyphname = multiply;
lastChange = "2024-11-27 21:21:06 +0000";
layers = (
{
layerId = m01;
shapes = (
{
closed = 1;
nodes = (
(357,465,l),
(272,465,l),
(57,121,l),
(142,121,l)
);
},
{
closed = 1;
nodes = (
(357,121,l),
(148,466,l),
(64,466,l),
(272,121,l)
);
}
);
width = 400;
},
{
layerId = m002;
shapes = (
{
closed = 1;
nodes = (
(357,465,l),
(272,465,l),
(57,121,l),
(142,121,l)
);
},
{
closed = 1;
nodes = (
(357,121,l),
(148,466,l),
(64,466,l),
(272,121,l)
);
}
);
width = 400;
},
{
layerId = m003;
shapes = (
{
closed = 1;
nodes = (
(357,465,l),
(272,465,l),
(57,121,l),
(142,121,l)
);
},
{
closed = 1;
nodes = (
(357,121,l),
(148,466,l),
(64,466,l),
(272,121,l)
);
}
);
width = 400;
}
);
unicode = 215;
},
{
glyphname = dieresiscomb;
lastChange = "2024-11-27 21:21:06 +0000";
layers = (
{
anchors = (
{
name = _top;
pos = (143,400);
},
{
name = top;
pos = (170,564);
}
);
layerId = m01;
shapes = (
{
closed = 1;
nodes = (
(130,504,l),
(130,564,l),
(70,564,l),
(70,504,l)
);
},
{
closed = 1;
nodes = (
(250,504,l),
(250,564,l),
(190,564,l),
(190,504,l)
);
}
);
width = 320;
},
{
anchors = (
{
name = _top;
pos = (159,400);
},
{
name = top;
pos = (170,564);
}
);
layerId = m002;
shapes = (
{
closed = 1;
nodes = (
(130,504,l),
(130,564,l),
(70,564,l),
(70,504,l)
);
},
{
closed = 1;
nodes = (
(250,504,l),
(250,564,l),
(190,564,l),
(190,504,l)
);
}
);
width = 320;
},
{
anchors = (
{
name = _top;
pos = (143,400);
},
{
name = top;
pos = (170,564);
}
);
layerId = m003;
shapes = (
{
closed = 1;
nodes = (
(130,504,l),
(130,564,l),
(70,564,l),
(70,504,l)
);
},
{
closed = 1;
nodes = (
(250,504,l),
(250,564,l),
(190,564,l),
(190,504,l)
);
}
);
width = 320;
}
);
metricLeft = H;
metricRight = H;
unicode = 776;
},
{
glyphname = dotaccentcomb;
lastChange = "2025-02-25 10:05:22 +0000";
layers = (
{
anchors = (
{
name = _top;
pos = (100,400);
},
{
name = top;
pos = (100,564);
}
);
layerId = m01;
shapes = (
{
closed = 1;
nodes = (
(130,488,l),
(130,548,l),
(70,548,l),
(70,488,l)
);
}
);
width = 200;
},
{
anchors = (
{
name = _top;
pos = (108,370);
},
{
name = top;
pos = (108,564);
}
);
layerId = m002;
shapes = (
{
closed = 1;
nodes = (
(146,488,l),
(146,564,l),
(70,564,l),
(70,488,l)
);
}
);
width = 216;
},
{
anchors = (
{
name = _top;
pos = (108,370);
},
{
name = top;
pos = (108,564);
}
);
layerId = m003;
shapes = (
{
closed = 1;
nodes = (
(146,488,l),
(146,564,l),
(70,564,l),
(70,488,l)
);
}
);
width = 216;
}
);
metricLeft = H;
metricRight = H;
unicode = 775;
},
{
glyphname = acutecomb;
lastChange = "2025-02-25 10:10:36 +0000";
layers = (
{
anchors = (
{
name = _top;
pos = (102,498);
},
{
name = top;
pos = (102,799);
}
);
layerId = m01;
shapes = (
{
closed = 1;
nodes = (
(130,550,l),
(130,700,l),
(70,700,l),
(70,550,l)
);
}
);
width = 200;
},
{
anchors = (
{
name = _top;
pos = (102,498);
},
{
name = top;
pos = (102,799);
}
);
layerId = m002;
shapes = (
{
closed = 1;
nodes = (
(130,550,l),
(130,700,l),
(70,700,l),
(70,550,l)
);
}
);
width = 200;
},
{
anchors = (
{
name = _top;
pos = (102,498);
},
{
name = top;
pos = (102,799);
}
);
layerId = m003;
shapes = (
{
closed = 1;
nodes = (
(130,550,l),
(130,700,l),
(70,700,l),
(70,550,l)
);
}
);
width = 200;
}
);
metricLeft = H;
metricRight = H;
unicode = 769;
},
{
glyphname = hungarumlautcomb;
lastChange = "2024-11-28 10:24:05 +0000";
layers = (
{
anchors = (
{
name = _top;
pos = (160,401);
},
{
name = top;
pos = (79,800);
}
);
layerId = m01;
shapes = (
{
closed = 1;
nodes = (
(130,457,l),
(130,607,l),
(70,607,l),
(70,457,l)
);
},
{
closed = 1;
nodes = (
(250,458,l),
(250,608,l),
(190,607,l),
(190,457,l)
);
}
);
width = 320;
},
{
anchors = (
{
name = _top;
pos = (160,401);
},
{
name = top;
pos = (79,800);
}
);
layerId = m002;
shapes = (
{
closed = 1;
nodes = (
(130,457,l),
(130,607,l),
(70,607,l),
(70,457,l)
);
},
{
closed = 1;
nodes = (
(250,458,l),
(250,608,l),
(190,607,l),
(190,457,l)
);
}
);
width = 320;
},
{
anchors = (
{
name = _top;
pos = (160,401);
},
{
name = top;
pos = (79,800);
}
);
layerId = m003;
shapes = (
{
closed = 1;
nodes = (
(130,457,l),
(130,607,l),
(70,607,l),
(70,457,l)
);
},
{
closed = 1;
nodes = (
(250,458,l),
(250,608,l),
(190,607,l),
(190,457,l)
);
}
);
width = 320;
}
);
metricLeft = H;
metricRight = H;
unicode = 779;
},
{
glyphname = circumflexcomb;
lastChange = "2024-11-27 21:21:06 +0000";
layers = (
{
anchors = (
{
name = _top;
pos = (158,469);
},
{
name = top;
pos = (158,700);
}
);
layerId = m01;
shapes = (
{
closed = 1;
nodes = (
(250,649,l),
(70,649,l),
(70,529,l),
(130,529,l),
(130,589,l),
(190,589,l),
(190,529,l),
(250,529,l)
);
}
);
width = 320;
},
{
anchors = (
{
name = _top;
pos = (158,469);
},
{
name = top;
pos = (158,700);
}
);
layerId = m002;
shapes = (
{
closed = 1;
nodes = (
(250,649,l),
(70,649,l),
(70,529,l),
(130,529,l),
(130,589,l),
(190,589,l),
(190,529,l),
(250,529,l)
);
}
);
width = 320;
},
{
anchors = (
{
name = _top;
pos = (158,469);
},
{
name = top;
pos = (158,700);
}
);
layerId = m003;
shapes = (
{
closed = 1;
nodes = (
(250,649,l),
(70,649,l),
(70,529,l),
(130,529,l),
(130,589,l),
(190,589,l),
(190,529,l),
(250,529,l)
);
}
);
width = 320;
}
);
metricLeft = H;
metricRight = H;
unicode = 770;
},
{
glyphname = caroncomb;
lastChange = "2024-11-27 21:21:06 +0000";
layers = (
{
anchors = (
{
name = _top;
pos = (160,428);
},
{
name = top;
pos = (160,700);
}
);
layerId = m01;
shapes = (
{
closed = 1;
nodes = (
(190,608,l),
(190,548,l),
(130,548,l),
(130,608,l),
(70,608,l),
(70,488,l),
(250,488,l),
(250,608,l)
);
}
);
width = 320;
},
{
anchors = (
{
name = _top;
pos = (160,428);
},
{
name = top;
pos = (160,700);
}
);
layerId = m002;
shapes = (
{
closed = 1;
nodes = (
(190,608,l),
(190,548,l),
(130,548,l),
(130,608,l),
(70,608,l),
(70,488,l),
(250,488,l),
(250,608,l)
);
}
);
width = 320;
},
{
anchors = (
{
name = _top;
pos = (160,428);
},
{
name = top;
pos = (160,700);
}
);
layerId = m003;
shapes = (
{
closed = 1;
nodes = (
(190,608,l),
(190,548,l),
(130,548,l),
(130,608,l),
(70,608,l),
(70,488,l),
(250,488,l),
(250,608,l)
);
}
);
width = 320;
}
);
metricLeft = H;
metricRight = H;
unicode = 780;
},
{
glyphname = ringcomb;
lastChange = "2024-11-27 21:21:06 +0000";
layers = (
{
anchors = (
{
name = _top;
pos = (160,400);
},
{
name = top;
pos = (160,700);
}
);
layerId = m01;
shapes = (
{
closed = 1;
nodes = (
(250,648,l),
(70,648,l),
(70,528,l),
(130,528,l),
(130,588,l),
(190,588,l),
(190,529,l),
(250,529,l)
);
},
{
closed = 1;
nodes = (
(190,588,l),
(190,528,l),
(130,528,l),
(130,588,l),
(70,588,l),
(70,468,l),
(250,468,l),
(250,588,l)
);
}
);
width = 320;
},
{
anchors = (
{
name = _top;
pos = (160,400);
},
{
name = top;
pos = (160,700);
}
);
layerId = m002;
shapes = (
{
closed = 1;
nodes = (
(250,648,l),
(70,648,l),
(70,528,l),
(130,528,l),
(130,588,l),
(190,588,l),
(190,529,l),
(250,529,l)
);
},
{
closed = 1;
nodes = (
(190,588,l),
(190,528,l),
(130,528,l),
(130,588,l),
(70,588,l),
(70,468,l),
(250,468,l),
(250,588,l)
);
}
);
width = 320;
},
{
anchors = (
{
name = _top;
pos = (160,400);
},
{
name = top;
pos = (160,700);
}
);
layerId = m003;
shapes = (
{
closed = 1;
nodes = (
(250,648,l),
(70,648,l),
(70,528,l),
(130,528,l),
(130,588,l),
(190,588,l),
(190,529,l),
(250,529,l)
);
},
{
closed = 1;
nodes = (
(190,588,l),
(190,528,l),
(130,528,l),
(130,588,l),
(70,588,l),
(70,468,l),
(250,468,l),
(250,588,l)
);
}
);
width = 320;
}
);
metricLeft = H;
metricRight = H;
unicode = 778;
},
{
glyphname = dotaccentcomb.ss01;
lastChange = "2025-02-25 10:08:45 +0000";
layers = (
{
anchors = (
{
name = _top;
pos = (130,400);
},
{
name = top;
pos = (130,608);
}
);
layerId = m01;
shapes = (
{
closed = 1;
nodes = (
(190,488,l),
(190,608,l),
(70,608,l),
(70,488,l)
);
}
);
width = 260;
},
{
anchors = (
{
name = _top;
pos = (108,370);
},
{
name = top;
pos = (108,564);
}
);
layerId = m002;
shapes = (
{
closed = 1;
nodes = (
(146,488,l),
(146,564,l),
(70,564,l),
(70,488,l)
);
}
);
width = 216;
},
{
anchors = (
{
name = _top;
pos = (108,370);
},
{
name = top;
pos = (108,564);
}
);
layerId = m003;
shapes = (
{
closed = 1;
nodes = (
(146,488,l),
(146,564,l),
(70,564,l),
(70,488,l)
);
}
);
width = 216;
}
);
metricLeft = H;
metricRight = H;
},
{
glyphname = acutecomb.ss01;
lastChange = "2025-02-25 10:13:08 +0000";
layers = (
{
anchors = (
{
name = _top;
pos = (130,400);
},
{
name = top;
pos = (130,700);
}
);
layerId = m01;
shapes = (
{
closed = 1;
nodes = (
(190,498,l),
(190,700,l),
(70,700,l),
(70,498,l)
);
}
);
width = 260;
},
{
anchors = (
{
name = _top;
pos = (102,498);
},
{
name = top;
pos = (102,799);
}
);
layerId = m002;
shapes = (
{
closed = 1;
nodes = (
(130,550,l),
(130,700,l),
(70,700,l),
(70,550,l)
);
}
);
width = 200;
},
{
anchors = (
{
name = _top;
pos = (102,498);
},
{
name = top;
pos = (102,799);
}
);
layerId = m003;
shapes = (
{
closed = 1;
nodes = (
(130,550,l),
(130,700,l),
(70,700,l),
(70,550,l)
);
}
);
width = 200;
}
);
metricLeft = H;
metricRight = H;
},
{
glyphname = "aha-mark";
lastChange = "2024-11-27 21:21:06 +0000";
layers = (
{
layerId = m01;
shapes = (
{
attr = {
fillColor = (45,56,75,255);
};
closed = 1;
nodes = (
(652,118,o),
(514,-49,o),
(343,-82,c),
(173,-115,o),
(35,-3,o),
(35,169,c),
(35,341,o),
(173,508,o),
(343,541,c),
(514,575,o),
(652,462,o),
(652,290,c)
);
},
{
attr = {
fillColor = (45,56,75,255);
};
closed = 1;
nodes = (
(342,308,l),
(277,409,l),
(220,365,l),
(286,265,l),
(103,229,l),
(103,157,l),
(258,188,l),
(190,91,l),
(256,46,l),
(345,173,l),
(428,44,l),
(485,88,l),
(401,216,l),
(584,254,l),
(584,324,l),
(428,292,l),
(490,383,l),
(425,426,l)
);
}
);
width = 687;
},
{
layerId = m002;
shapes = (
{
attr = {
fillColor = (45,56,75,255);
};
closed = 1;
nodes = (
(652,118,o),
(514,-49,o),
(343,-82,c),
(173,-115,o),
(35,-3,o),
(35,169,c),
(35,341,o),
(173,508,o),
(343,541,c),
(514,575,o),
(652,462,o),
(652,290,c)
);
},
{
attr = {
fillColor = (45,56,75,255);
};
closed = 1;
nodes = (
(342,308,l),
(277,409,l),
(220,365,l),
(286,265,l),
(103,229,l),
(103,157,l),
(258,188,l),
(190,91,l),
(256,46,l),
(345,173,l),
(428,44,l),
(485,88,l),
(401,216,l),
(584,254,l),
(584,324,l),
(428,292,l),
(490,383,l),
(425,426,l)
);
}
);
width = 687;
},
{
layerId = m003;
shapes = (
{
attr = {
fillColor = (45,56,75,255);
};
closed = 1;
nodes = (
(652,118,o),
(514,-49,o),
(343,-82,c),
(173,-115,o),
(35,-3,o),
(35,169,c),
(35,341,o),
(173,508,o),
(343,541,c),
(514,575,o),
(652,462,o),
(652,290,c)
);
},
{
attr = {
fillColor = (45,56,75,255);
};
closed = 1;
nodes = (
(342,308,l),
(277,409,l),
(220,365,l),
(286,265,l),
(103,229,l),
(103,157,l),
(258,188,l),
(190,91,l),
(256,46,l),
(345,173,l),
(428,44,l),
(485,88,l),
(401,216,l),
(584,254,l),
(584,324,l),
(428,292,l),
(490,383,l),
(425,426,l)
);
}
);
width = 687;
}
);
metricLeft = "=H/2";
metricRight = "=H/2";
unicode = 61800;
},
{
glyphname = "aha-star";
lastChange = "2024-11-27 21:21:06 +0000";
layers = (
{
layerId = m01;
shapes = (
{
attr = {
fillColor = (45,56,75,255);
};
closed = 1;
nodes = (
(274,308,l),
(209,409,l),
(152,365,l),
(218,265,l),
(35,229,l),
(35,157,l),
(190,188,l),
(122,91,l),
(188,46,l),
(277,173,l),
(360,44,l),
(417,88,l),
(333,216,l),
(516,254,l),
(516,324,l),
(360,292,l),
(422,383,l),
(357,426,l)
);
}
);
width = 551;
},
{
layerId = m002;
shapes = (
{
attr = {
fillColor = (45,56,75,255);
};
closed = 1;
nodes = (
(274,308,l),
(209,409,l),
(152,365,l),
(218,265,l),
(35,229,l),
(35,157,l),
(190,188,l),
(122,91,l),
(188,46,l),
(277,173,l),
(360,44,l),
(417,88,l),
(333,216,l),
(516,254,l),
(516,324,l),
(360,292,l),
(422,383,l),
(357,426,l)
);
}
);
width = 551;
},
{
layerId = m003;
shapes = (
{
attr = {
fillColor = (45,56,75,255);
};
closed = 1;
nodes = (
(274,308,l),
(209,409,l),
(152,365,l),
(218,265,l),
(35,229,l),
(35,157,l),
(190,188,l),
(122,91,l),
(188,46,l),
(277,173,l),
(360,44,l),
(417,88,l),
(333,216,l),
(516,254,l),
(516,324,l),
(360,292,l),
(422,383,l),
(357,426,l)
);
}
);
width = 551;
}
);
metricLeft = "=H/2";
metricRight = "=H/2";
unicode = 61801;
},
{
export = 0;
glyphname = WIP;
lastChange = "2024-11-27 21:21:06 +0000";
layers = (
{
layerId = m01;
shapes = (
{
closed = 1;
nodes = (
(318,700,l),
(157,700,l),
(310,0,l),
(477,0,l)
);
}
